  0
SECTION
  2
BLOCKS
  0
ENDSEC
  0
SECTION
  2
ENTITIES
  0
LINE
  8
0
 10
14.5451
 20
-61.2553
 11
15.5
 21
-60.8301
  0
LINE
  8
0
 10
15.5
 20
-60.8301
 11
16.3456
 21
-60.2157
  0
LINE
  8
0
 10
16.3456
 20
-60.2157
 11
17.0451
 21
-59.4389
  0
LINE
  8
0
 10
17.0451
 20
-59.4389
 11
17.5677
 21
-58.5337
  0
LINE
  8
0
 10
17.5677
 20
-58.5337
 11
17.8907
 21
-57.5396
  0
LINE
  8
0
 10
17.8907
 20
-57.5396
 11
17.971
 21
-56.7756
  0
LINE
  8
0
 10
17.971
 20
-56.7756
 11
18.0729
 21
-56.7116
  0
LINE
  8
0
 10
18.0729
 20
-56.7116
 11
18.0951
 21
-56.5
  0
LINE
  8
0
 10
18.0951
 20
-56.5
 11
18.0951
 21
-54.0545
  0
LINE
  8
0
 10
18.0951
 20
-54.0545
 11
18.3798
 21
-52.4938
  0
LINE
  8
0
 10
18.3798
 20
-52.4938
 11
18.8519
 21
-50.8667
  0
LINE
  8
0
 10
18.8519
 20
-50.8667
 11
19.5077
 21
-49.1492
  0
LINE
  8
0
 10
19.5077
 20
-49.1492
 11
20.3423
 21
-47.4019
  0
LINE
  8
0
 10
20.3423
 20
-47.4019
 11
21.3493
 21
-45.6625
  0
LINE
  8
0
 10
21.3493
 20
-45.6625
 11
22.5212
 21
-43.935
  0
LINE
  8
0
 10
22.5212
 20
-43.935
 11
23.8489
 21
-42.253
  0
LINE
  8
0
 10
23.8489
 20
-42.253
 11
25.3223
 21
-40.6237
  0
LINE
  8
0
 10
25.3223
 20
-40.6237
 11
26.9303
 21
-39.0464
  0
LINE
  8
0
 10
26.9303
 20
-39.0464
 11
28.6606
 21
-37.4732
  0
LINE
  8
0
 10
28.6606
 20
-37.4732
 11
30.5
 21
-35.7613
  0
LINE
  8
0
 10
30.5
 20
-35.7613
 11
32.2248
 21
-33.7631
  0
LINE
  8
0
 10
32.2248
 20
-33.7631
 11
32.4345
 21
-33.4877
  0
LINE
  8
0
 10
32.4345
 20
-33.4877
 11
32.981
 21
-32.4166
  0
LINE
  8
0
 10
32.981
 20
-32.4166
 11
33.2054
 21
-31.9762
  0
LINE
  8
0
 10
33.2054
 20
-31.9762
 11
33.3894
 21
-31.5175
  0
LINE
  8
0
 10
33.3894
 20
-31.5175
 11
33.5315
 21
-31.0442
  0
LINE
  8
0
 10
33.5315
 20
-31.0442
 11
33.6307
 21
-30.5601
  0
LINE
  8
0
 10
33.6307
 20
-30.5601
 11
33.686
 21
-30.069
  0
LINE
  8
0
 10
33.686
 20
-30.069
 11
33.6894
 21
-29.9676
  0
LINE
  8
0
 10
33.6894
 20
-29.9676
 11
33.6975
 21
-29.6087
  0
LINE
  8
0
 10
33.6975
 20
-29.6087
 11
33.6975
 21
-27.0336
  0
LINE
  8
0
 10
33.6975
 20
-27.0336
 11
32.8571
 21
-22.2677
  0
LINE
  8
0
 10
32.8571
 20
-22.2677
 11
31.6897
 21
-11.161
  0
LINE
  8
0
 10
31.6897
 20
-11.161
 11
31.3
 21
0
  0
LINE
  8
0
 10
31.3
 20
0
 11
31.6897
 21
11.161
  0
LINE
  8
0
 10
31.6897
 20
11.161
 11
32.8571
 21
22.2677
  0
LINE
  8
0
 10
32.8571
 20
22.2677
 11
33.6975
 21
27.0336
  0
LINE
  8
0
 10
33.6975
 20
27.0336
 11
33.6975
 21
29.6087
  0
LINE
  8
0
 10
33.6975
 20
29.6087
 11
33.6894
 21
29.9676
  0
LINE
  8
0
 10
33.6894
 20
29.9676
 11
33.686
 21
30.069
  0
LINE
  8
0
 10
33.686
 20
30.069
 11
33.6307
 21
30.5601
  0
LINE
  8
0
 10
33.6307
 20
30.5601
 11
33.5315
 21
31.0442
  0
LINE
  8
0
 10
33.5315
 20
31.0442
 11
33.3894
 21
31.5175
  0
LINE
  8
0
 10
33.3894
 20
31.5175
 11
33.2054
 21
31.9762
  0
LINE
  8
0
 10
33.2054
 20
31.9762
 11
32.981
 21
32.4166
  0
LINE
  8
0
 10
32.981
 20
32.4166
 11
32.4345
 21
33.4877
  0
LINE
  8
0
 10
32.4345
 20
33.4877
 11
32.2248
 21
33.7631
  0
LINE
  8
0
 10
32.2248
 20
33.7631
 11
30.5
 21
35.7613
  0
LINE
  8
0
 10
30.5
 20
35.7613
 11
28.6606
 21
37.4732
  0
LINE
  8
0
 10
28.6606
 20
37.4732
 11
26.9303
 21
39.0464
  0
LINE
  8
0
 10
26.9303
 20
39.0464
 11
25.3223
 21
40.6237
  0
LINE
  8
0
 10
25.3223
 20
40.6237
 11
23.8489
 21
42.253
  0
LINE
  8
0
 10
23.8489
 20
42.253
 11
22.5212
 21
43.935
  0
LINE
  8
0
 10
22.5212
 20
43.935
 11
21.3493
 21
45.6625
  0
LINE
  8
0
 10
21.3493
 20
45.6625
 11
20.3423
 21
47.4019
  0
LINE
  8
0
 10
20.3423
 20
47.4019
 11
19.5077
 21
49.1492
  0
LINE
  8
0
 10
19.5077
 20
49.1492
 11
18.8519
 21
50.8667
  0
LINE
  8
0
 10
18.8519
 20
50.8667
 11
18.3798
 21
52.4938
  0
LINE
  8
0
 10
18.3798
 20
52.4938
 11
18.0951
 21
54.0545
  0
LINE
  8
0
 10
18.0951
 20
54.0545
 11
18.0951
 21
56.5
  0
LINE
  8
0
 10
18.0951
 20
56.5
 11
18.0729
 21
56.7116
  0
LINE
  8
0
 10
18.0729
 20
56.7116
 11
17.971
 21
56.7756
  0
LINE
  8
0
 10
17.971
 20
56.7756
 11
17.8907
 21
57.5396
  0
LINE
  8
0
 10
17.8907
 20
57.5396
 11
17.5677
 21
58.5337
  0
LINE
  8
0
 10
17.5677
 20
58.5337
 11
17.0451
 21
59.4389
  0
LINE
  8
0
 10
17.0451
 20
59.4389
 11
16.3456
 21
60.2157
  0
LINE
  8
0
 10
16.3456
 20
60.2157
 11
15.5
 21
60.8301
  0
LINE
  8
0
 10
15.5
 20
60.8301
 11
14.5451
 21
61.2553
  0
LINE
  8
0
 10
14.5451
 20
61.2553
 11
13.5226
 21
61.4726
  0
LINE
  8
0
 10
13.5226
 20
61.4726
 11
-13.5226
 21
61.4726
  0
LINE
  8
0
 10
-13.5226
 20
61.4726
 11
-14.5451
 21
61.2553
  0
LINE
  8
0
 10
-14.5451
 20
61.2553
 11
-15.5
 21
60.8301
  0
LINE
  8
0
 10
-15.5
 20
60.8301
 11
-16.3456
 21
60.2157
  0
LINE
  8
0
 10
-16.3456
 20
60.2157
 11
-17.0451
 21
59.4389
  0
LINE
  8
0
 10
-17.0451
 20
59.4389
 11
-17.5677
 21
58.5337
  0
LINE
  8
0
 10
-17.5677
 20
58.5337
 11
-17.8907
 21
57.5396
  0
LINE
  8
0
 10
-17.8907
 20
57.5396
 11
-17.971
 21
56.7756
  0
LINE
  8
0
 10
-17.971
 20
56.7756
 11
-18.0729
 21
56.7116
  0
LINE
  8
0
 10
-18.0729
 20
56.7116
 11
-18.0951
 21
56.5
  0
LINE
  8
0
 10
-18.0951
 20
56.5
 11
-18.0951
 21
54.0545
  0
LINE
  8
0
 10
-18.0951
 20
54.0545
 11
-18.3798
 21
52.4938
  0
LINE
  8
0
 10
-18.3798
 20
52.4938
 11
-18.8519
 21
50.8667
  0
LINE
  8
0
 10
-18.8519
 20
50.8667
 11
-19.5077
 21
49.1492
  0
LINE
  8
0
 10
-19.5077
 20
49.1492
 11
-20.3423
 21
47.4019
  0
LINE
  8
0
 10
-20.3423
 20
47.4019
 11
-21.3493
 21
45.6625
  0
LINE
  8
0
 10
-21.3493
 20
45.6625
 11
-22.5212
 21
43.935
  0
LINE
  8
0
 10
-22.5212
 20
43.935
 11
-23.8489
 21
42.253
  0
LINE
  8
0
 10
-23.8489
 20
42.253
 11
-25.3223
 21
40.6237
  0
LINE
  8
0
 10
-25.3223
 20
40.6237
 11
-26.9303
 21
39.0464
  0
LINE
  8
0
 10
-26.9303
 20
39.0464
 11
-28.6606
 21
37.4732
  0
LINE
  8
0
 10
-28.6606
 20
37.4732
 11
-30.5
 21
35.7613
  0
LINE
  8
0
 10
-30.5
 20
35.7613
 11
-32.2248
 21
33.7631
  0
LINE
  8
0
 10
-32.2248
 20
33.7631
 11
-32.4345
 21
33.4877
  0
LINE
  8
0
 10
-32.4345
 20
33.4877
 11
-32.981
 21
32.4166
  0
LINE
  8
0
 10
-32.981
 20
32.4166
 11
-33.2054
 21
31.9762
  0
LINE
  8
0
 10
-33.2054
 20
31.9762
 11
-33.3894
 21
31.5175
  0
LINE
  8
0
 10
-33.3894
 20
31.5175
 11
-33.5315
 21
31.0442
  0
LINE
  8
0
 10
-33.5315
 20
31.0442
 11
-33.6307
 21
30.5601
  0
LINE
  8
0
 10
-33.6307
 20
30.5601
 11
-33.686
 21
30.069
  0
LINE
  8
0
 10
-33.686
 20
30.069
 11
-33.6894
 21
29.9676
  0
LINE
  8
0
 10
-33.6894
 20
29.9676
 11
-33.6975
 21
29.6087
  0
LINE
  8
0
 10
-33.6975
 20
29.6087
 11
-33.6975
 21
27.0336
  0
LINE
  8
0
 10
-33.6975
 20
27.0336
 11
-32.8571
 21
22.2677
  0
LINE
  8
0
 10
-32.8571
 20
22.2677
 11
-31.6897
 21
11.161
  0
LINE
  8
0
 10
-31.6897
 20
11.161
 11
-31.3
 21
0
  0
LINE
  8
0
 10
-31.3
 20
0
 11
-31.6897
 21
-11.161
  0
LINE
  8
0
 10
-31.6897
 20
-11.161
 11
-32.8571
 21
-22.2677
  0
LINE
  8
0
 10
-32.8571
 20
-22.2677
 11
-33.6975
 21
-27.0336
  0
LINE
  8
0
 10
-33.6975
 20
-27.0336
 11
-33.6975
 21
-29.6087
  0
LINE
  8
0
 10
-33.6975
 20
-29.6087
 11
-33.6894
 21
-29.9676
  0
LINE
  8
0
 10
-33.6894
 20
-29.9676
 11
-33.686
 21
-30.069
  0
LINE
  8
0
 10
-33.686
 20
-30.069
 11
-33.6307
 21
-30.5601
  0
LINE
  8
0
 10
-33.6307
 20
-30.5601
 11
-33.5315
 21
-31.0442
  0
LINE
  8
0
 10
-33.5315
 20
-31.0442
 11
-33.3894
 21
-31.5175
  0
LINE
  8
0
 10
-33.3894
 20
-31.5175
 11
-33.2054
 21
-31.9762
  0
LINE
  8
0
 10
-33.2054
 20
-31.9762
 11
-32.981
 21
-32.4166
  0
LINE
  8
0
 10
-32.981
 20
-32.4166
 11
-32.4345
 21
-33.4877
  0
LINE
  8
0
 10
-32.4345
 20
-33.4877
 11
-32.2248
 21
-33.7631
  0
LINE
  8
0
 10
-32.2248
 20
-33.7631
 11
-30.5
 21
-35.7613
  0
LINE
  8
0
 10
-30.5
 20
-35.7613
 11
-28.6606
 21
-37.4732
  0
LINE
  8
0
 10
-28.6606
 20
-37.4732
 11
-26.9303
 21
-39.0464
  0
LINE
  8
0
 10
-26.9303
 20
-39.0464
 11
-25.3223
 21
-40.6237
  0
LINE
  8
0
 10
-25.3223
 20
-40.6237
 11
-23.8489
 21
-42.253
  0
LINE
  8
0
 10
-23.8489
 20
-42.253
 11
-22.5212
 21
-43.935
  0
LINE
  8
0
 10
-22.5212
 20
-43.935
 11
-21.3493
 21
-45.6625
  0
LINE
  8
0
 10
-21.3493
 20
-45.6625
 11
-20.3423
 21
-47.4019
  0
LINE
  8
0
 10
-20.3423
 20
-47.4019
 11
-19.5077
 21
-49.1492
  0
LINE
  8
0
 10
-19.5077
 20
-49.1492
 11
-18.8519
 21
-50.8667
  0
LINE
  8
0
 10
-18.8519
 20
-50.8667
 11
-18.3798
 21
-52.4938
  0
LINE
  8
0
 10
-18.3798
 20
-52.4938
 11
-18.0951
 21
-54.0545
  0
LINE
  8
0
 10
-18.0951
 20
-54.0545
 11
-18.0951
 21
-56.5
  0
LINE
  8
0
 10
-18.0951
 20
-56.5
 11
-18.0729
 21
-56.7116
  0
LINE
  8
0
 10
-18.0729
 20
-56.7116
 11
-17.971
 21
-56.7756
  0
LINE
  8
0
 10
-17.971
 20
-56.7756
 11
-17.8907
 21
-57.5396
  0
LINE
  8
0
 10
-17.8907
 20
-57.5396
 11
-17.5677
 21
-58.5337
  0
LINE
  8
0
 10
-17.5677
 20
-58.5337
 11
-17.0451
 21
-59.4389
  0
LINE
  8
0
 10
-17.0451
 20
-59.4389
 11
-16.3456
 21
-60.2157
  0
LINE
  8
0
 10
-16.3456
 20
-60.2157
 11
-15.5
 21
-60.8301
  0
LINE
  8
0
 10
-15.5
 20
-60.8301
 11
-14.5451
 21
-61.2553
  0
LINE
  8
0
 10
-14.5451
 20
-61.2553
 11
-13.5226
 21
-61.4726
  0
LINE
  8
0
 10
-13.5226
 20
-61.4726
 11
13.5226
 21
-61.4726
  0
LINE
  8
0
 10
13.5226
 20
-61.4726
 11
14.5451
 21
-61.2553
  0
LINE
  8
0
 10
12.8694
 20
45.0368
 11
12.6137
 21
45.0912
  0
LINE
  8
0
 10
12.6137
 20
45.0912
 11
12.375
 21
45.1975
  0
LINE
  8
0
 10
12.375
 20
45.1975
 11
12.1636
 21
45.3511
  0
LINE
  8
0
 10
12.1636
 20
45.3511
 11
11.9887
 21
45.5453
  0
LINE
  8
0
 10
11.9887
 20
45.5453
 11
11.8581
 21
45.7716
  0
LINE
  8
0
 10
11.8581
 20
45.7716
 11
11.7773
 21
46.0201
  0
LINE
  8
0
 10
11.7773
 20
46.0201
 11
11.75
 21
46.28
  0
LINE
  8
0
 10
11.75
 20
46.28
 11
11.75
 21
56.28
  0
LINE
  8
0
 10
11.75
 20
56.28
 11
11.7773
 21
56.5399
  0
LINE
  8
0
 10
11.7773
 20
56.5399
 11
11.8581
 21
56.7884
  0
LINE
  8
0
 10
11.8581
 20
56.7884
 11
11.9887
 21
57.0147
  0
LINE
  8
0
 10
11.9887
 20
57.0147
 11
12.1636
 21
57.2089
  0
LINE
  8
0
 10
12.1636
 20
57.2089
 11
12.375
 21
57.3625
  0
LINE
  8
0
 10
12.375
 20
57.3625
 11
12.6137
 21
57.4688
  0
LINE
  8
0
 10
12.6137
 20
57.4688
 11
12.8694
 21
57.5231
  0
LINE
  8
0
 10
12.8694
 20
57.5231
 11
13.1306
 21
57.5231
  0
LINE
  8
0
 10
13.1306
 20
57.5231
 11
13.3863
 21
57.4688
  0
LINE
  8
0
 10
13.3863
 20
57.4688
 11
13.625
 21
57.3625
  0
LINE
  8
0
 10
13.625
 20
57.3625
 11
13.8364
 21
57.2089
  0
LINE
  8
0
 10
13.8364
 20
57.2089
 11
14.0113
 21
57.0147
  0
LINE
  8
0
 10
14.0113
 20
57.0147
 11
14.1419
 21
56.7884
  0
LINE
  8
0
 10
14.1419
 20
56.7884
 11
14.2227
 21
56.5399
  0
LINE
  8
0
 10
14.2227
 20
56.5399
 11
14.25
 21
56.28
  0
LINE
  8
0
 10
14.25
 20
56.28
 11
14.25
 21
46.28
  0
LINE
  8
0
 10
14.25
 20
46.28
 11
14.2227
 21
46.0201
  0
LINE
  8
0
 10
14.2227
 20
46.0201
 11
14.1419
 21
45.7716
  0
LINE
  8
0
 10
14.1419
 20
45.7716
 11
14.0113
 21
45.5453
  0
LINE
  8
0
 10
14.0113
 20
45.5453
 11
13.8364
 21
45.3511
  0
LINE
  8
0
 10
13.8364
 20
45.3511
 11
13.625
 21
45.1975
  0
LINE
  8
0
 10
13.625
 20
45.1975
 11
13.3863
 21
45.0912
  0
LINE
  8
0
 10
13.3863
 20
45.0912
 11
13.1306
 21
45.0368
  0
LINE
  8
0
 10
13.1306
 20
45.0368
 11
12.8694
 21
45.0368
  0
LINE
  8
0
 10
-13.1306
 20
45.0368
 11
-13.3863
 21
45.0912
  0
LINE
  8
0
 10
-13.3863
 20
45.0912
 11
-13.625
 21
45.1975
  0
LINE
  8
0
 10
-13.625
 20
45.1975
 11
-13.8364
 21
45.3511
  0
LINE
  8
0
 10
-13.8364
 20
45.3511
 11
-14.0113
 21
45.5453
  0
LINE
  8
0
 10
-14.0113
 20
45.5453
 11
-14.1419
 21
45.7716
  0
LINE
  8
0
 10
-14.1419
 20
45.7716
 11
-14.2227
 21
46.0201
  0
LINE
  8
0
 10
-14.2227
 20
46.0201
 11
-14.25
 21
46.28
  0
LINE
  8
0
 10
-14.25
 20
46.28
 11
-14.25
 21
56.28
  0
LINE
  8
0
 10
-14.25
 20
56.28
 11
-14.2227
 21
56.5399
  0
LINE
  8
0
 10
-14.2227
 20
56.5399
 11
-14.1419
 21
56.7884
  0
LINE
  8
0
 10
-14.1419
 20
56.7884
 11
-14.0113
 21
57.0147
  0
LINE
  8
0
 10
-14.0113
 20
57.0147
 11
-13.8364
 21
57.2089
  0
LINE
  8
0
 10
-13.8364
 20
57.2089
 11
-13.625
 21
57.3625
  0
LINE
  8
0
 10
-13.625
 20
57.3625
 11
-13.3863
 21
57.4688
  0
LINE
  8
0
 10
-13.3863
 20
57.4688
 11
-13.1306
 21
57.5231
  0
LINE
  8
0
 10
-13.1306
 20
57.5231
 11
-12.8694
 21
57.5231
  0
LINE
  8
0
 10
-12.8694
 20
57.5231
 11
-12.6137
 21
57.4688
  0
LINE
  8
0
 10
-12.6137
 20
57.4688
 11
-12.375
 21
57.3625
  0
LINE
  8
0
 10
-12.375
 20
57.3625
 11
-12.1636
 21
57.2089
  0
LINE
  8
0
 10
-12.1636
 20
57.2089
 11
-11.9887
 21
57.0147
  0
LINE
  8
0
 10
-11.9887
 20
57.0147
 11
-11.8581
 21
56.7884
  0
LINE
  8
0
 10
-11.8581
 20
56.7884
 11
-11.7773
 21
56.5399
  0
LINE
  8
0
 10
-11.7773
 20
56.5399
 11
-11.75
 21
56.28
  0
LINE
  8
0
 10
-11.75
 20
56.28
 11
-11.75
 21
46.28
  0
LINE
  8
0
 10
-11.75
 20
46.28
 11
-11.7773
 21
46.0201
  0
LINE
  8
0
 10
-11.7773
 20
46.0201
 11
-11.8581
 21
45.7716
  0
LINE
  8
0
 10
-11.8581
 20
45.7716
 11
-11.9887
 21
45.5453
  0
LINE
  8
0
 10
-11.9887
 20
45.5453
 11
-12.1636
 21
45.3511
  0
LINE
  8
0
 10
-12.1636
 20
45.3511
 11
-12.375
 21
45.1975
  0
LINE
  8
0
 10
-12.375
 20
45.1975
 11
-12.6137
 21
45.0912
  0
LINE
  8
0
 10
-12.6137
 20
45.0912
 11
-12.8694
 21
45.0368
  0
LINE
  8
0
 10
-12.8694
 20
45.0368
 11
-13.1306
 21
45.0368
  0
LINE
  8
0
 10
-7.5
 20
38.75
 11
-7.75989
 21
38.7773
  0
LINE
  8
0
 10
-7.75989
 20
38.7773
 11
-8.00841
 21
38.8581
  0
LINE
  8
0
 10
-8.00841
 20
38.8581
 11
-8.23473
 21
38.9887
  0
LINE
  8
0
 10
-8.23473
 20
38.9887
 11
-8.42892
 21
39.1636
  0
LINE
  8
0
 10
-8.42892
 20
39.1636
 11
-8.58252
 21
39.375
  0
LINE
  8
0
 10
-8.58252
 20
39.375
 11
-8.68881
 21
39.6137
  0
LINE
  8
0
 10
-8.68881
 20
39.6137
 11
-8.74315
 21
39.8694
  0
LINE
  8
0
 10
-8.74315
 20
39.8694
 11
-8.74315
 21
40.1306
  0
LINE
  8
0
 10
-8.74315
 20
40.1306
 11
-8.68881
 21
40.3863
  0
LINE
  8
0
 10
-8.68881
 20
40.3863
 11
-8.58252
 21
40.625
  0
LINE
  8
0
 10
-8.58252
 20
40.625
 11
-8.42892
 21
40.8364
  0
LINE
  8
0
 10
-8.42892
 20
40.8364
 11
-8.23473
 21
41.0113
  0
LINE
  8
0
 10
-8.23473
 20
41.0113
 11
-8.00841
 21
41.1419
  0
LINE
  8
0
 10
-8.00841
 20
41.1419
 11
-7.75989
 21
41.2227
  0
LINE
  8
0
 10
-7.75989
 20
41.2227
 11
-7.5
 21
41.25
  0
LINE
  8
0
 10
-7.5
 20
41.25
 11
7.5
 21
41.25
  0
LINE
  8
0
 10
7.5
 20
41.25
 11
7.75989
 21
41.2227
  0
LINE
  8
0
 10
7.75989
 20
41.2227
 11
8.00841
 21
41.1419
  0
LINE
  8
0
 10
8.00841
 20
41.1419
 11
8.23473
 21
41.0113
  0
LINE
  8
0
 10
8.23473
 20
41.0113
 11
8.42892
 21
40.8364
  0
LINE
  8
0
 10
8.42892
 20
40.8364
 11
8.58252
 21
40.625
  0
LINE
  8
0
 10
8.58252
 20
40.625
 11
8.68881
 21
40.3863
  0
LINE
  8
0
 10
8.68881
 20
40.3863
 11
8.74315
 21
40.1306
  0
LINE
  8
0
 10
8.74315
 20
40.1306
 11
8.74315
 21
39.8694
  0
LINE
  8
0
 10
8.74315
 20
39.8694
 11
8.68881
 21
39.6137
  0
LINE
  8
0
 10
8.68881
 20
39.6137
 11
8.58252
 21
39.375
  0
LINE
  8
0
 10
8.58252
 20
39.375
 11
8.42892
 21
39.1636
  0
LINE
  8
0
 10
8.42892
 20
39.1636
 11
8.23473
 21
38.9887
  0
LINE
  8
0
 10
8.23473
 20
38.9887
 11
8.00841
 21
38.8581
  0
LINE
  8
0
 10
8.00841
 20
38.8581
 11
7.75989
 21
38.7773
  0
LINE
  8
0
 10
7.75989
 20
38.7773
 11
7.5
 21
38.75
  0
LINE
  8
0
 10
7.5
 20
38.75
 11
-7.5
 21
38.75
  0
LINE
  8
0
 10
-29.2651
 20
27.2629
 11
-29.6185
 21
27.3576
  0
LINE
  8
0
 10
-29.6185
 20
27.3576
 11
-29.9445
 21
27.5237
  0
LINE
  8
0
 10
-29.9445
 20
27.5237
 11
-30.2288
 21
27.7539
  0
LINE
  8
0
 10
-30.2288
 20
27.7539
 11
-30.459
 21
28.0383
  0
LINE
  8
0
 10
-30.459
 20
28.0383
 11
-30.6251
 21
28.3642
  0
LINE
  8
0
 10
-30.6251
 20
28.3642
 11
-30.7198
 21
28.7176
  0
LINE
  8
0
 10
-30.7198
 20
28.7176
 11
-30.739
 21
29.083
  0
LINE
  8
0
 10
-30.739
 20
29.083
 11
-30.6817
 21
29.4443
  0
LINE
  8
0
 10
-30.6817
 20
29.4443
 11
-30.5506
 21
29.7859
  0
LINE
  8
0
 10
-30.5506
 20
29.7859
 11
-30.3514
 21
30.0927
  0
LINE
  8
0
 10
-30.3514
 20
30.0927
 11
-30.0927
 21
30.3514
  0
LINE
  8
0
 10
-30.0927
 20
30.3514
 11
-29.7859
 21
30.5506
  0
LINE
  8
0
 10
-29.7859
 20
30.5506
 11
-29.4443
 21
30.6817
  0
LINE
  8
0
 10
-29.4443
 20
30.6817
 11
-29.083
 21
30.739
  0
LINE
  8
0
 10
-29.083
 20
30.739
 11
-28.7176
 21
30.7198
  0
LINE
  8
0
 10
-28.7176
 20
30.7198
 11
-28.3642
 21
30.6251
  0
LINE
  8
0
 10
-28.3642
 20
30.6251
 11
-28.0383
 21
30.459
  0
LINE
  8
0
 10
-28.0383
 20
30.459
 11
-27.7539
 21
30.2288
  0
LINE
  8
0
 10
-27.7539
 20
30.2288
 11
-27.5237
 21
29.9445
  0
LINE
  8
0
 10
-27.5237
 20
29.9445
 11
-27.3576
 21
29.6185
  0
LINE
  8
0
 10
-27.3576
 20
29.6185
 11
-27.2629
 21
29.2651
  0
LINE
  8
0
 10
-27.2629
 20
29.2651
 11
-27.2438
 21
28.8998
  0
LINE
  8
0
 10
-27.2438
 20
28.8998
 11
-27.301
 21
28.5384
  0
LINE
  8
0
 10
-27.301
 20
28.5384
 11
-27.4321
 21
28.1969
  0
LINE
  8
0
 10
-27.4321
 20
28.1969
 11
-27.6314
 21
27.8901
  0
LINE
  8
0
 10
-27.6314
 20
27.8901
 11
-27.8901
 21
27.6314
  0
LINE
  8
0
 10
-27.8901
 20
27.6314
 11
-28.1969
 21
27.4321
  0
LINE
  8
0
 10
-28.1969
 20
27.4321
 11
-28.5384
 21
27.301
  0
LINE
  8
0
 10
-28.5384
 20
27.301
 11
-28.8998
 21
27.2438
  0
LINE
  8
0
 10
-28.8998
 20
27.2438
 11
-29.2651
 21
27.2629
  0
LINE
  8
0
 10
28.5384
 20
27.301
 11
28.1969
 21
27.4321
  0
LINE
  8
0
 10
28.1969
 20
27.4321
 11
27.8901
 21
27.6314
  0
LINE
  8
0
 10
27.8901
 20
27.6314
 11
27.6314
 21
27.8901
  0
LINE
  8
0
 10
27.6314
 20
27.8901
 11
27.4321
 21
28.1969
  0
LINE
  8
0
 10
27.4321
 20
28.1969
 11
27.301
 21
28.5384
  0
LINE
  8
0
 10
27.301
 20
28.5384
 11
27.2438
 21
28.8998
  0
LINE
  8
0
 10
27.2438
 20
28.8998
 11
27.2629
 21
29.2651
  0
LINE
  8
0
 10
27.2629
 20
29.2651
 11
27.3576
 21
29.6185
  0
LINE
  8
0
 10
27.3576
 20
29.6185
 11
27.5237
 21
29.9445
  0
LINE
  8
0
 10
27.5237
 20
29.9445
 11
27.7539
 21
30.2288
  0
LINE
  8
0
 10
27.7539
 20
30.2288
 11
28.0383
 21
30.459
  0
LINE
  8
0
 10
28.0383
 20
30.459
 11
28.3642
 21
30.6251
  0
LINE
  8
0
 10
28.3642
 20
30.6251
 11
28.7176
 21
30.7198
  0
LINE
  8
0
 10
28.7176
 20
30.7198
 11
29.083
 21
30.739
  0
LINE
  8
0
 10
29.083
 20
30.739
 11
29.4443
 21
30.6817
  0
LINE
  8
0
 10
29.4443
 20
30.6817
 11
29.7859
 21
30.5506
  0
LINE
  8
0
 10
29.7859
 20
30.5506
 11
30.0927
 21
30.3514
  0
LINE
  8
0
 10
30.0927
 20
30.3514
 11
30.3514
 21
30.0927
  0
LINE
  8
0
 10
30.3514
 20
30.0927
 11
30.5506
 21
29.7859
  0
LINE
  8
0
 10
30.5506
 20
29.7859
 11
30.6817
 21
29.4443
  0
LINE
  8
0
 10
30.6817
 20
29.4443
 11
30.739
 21
29.083
  0
LINE
  8
0
 10
30.739
 20
29.083
 11
30.7198
 21
28.7176
  0
LINE
  8
0
 10
30.7198
 20
28.7176
 11
30.6251
 21
28.3642
  0
LINE
  8
0
 10
30.6251
 20
28.3642
 11
30.459
 21
28.0383
  0
LINE
  8
0
 10
30.459
 20
28.0383
 11
30.2288
 21
27.7539
  0
LINE
  8
0
 10
30.2288
 20
27.7539
 11
29.9445
 21
27.5237
  0
LINE
  8
0
 10
29.9445
 20
27.5237
 11
29.6185
 21
27.3576
  0
LINE
  8
0
 10
29.6185
 20
27.3576
 11
29.2651
 21
27.2629
  0
LINE
  8
0
 10
29.2651
 20
27.2629
 11
28.8998
 21
27.2438
  0
LINE
  8
0
 10
28.8998
 20
27.2438
 11
28.5384
 21
27.301
  0
LINE
  8
0
 10
-12.0672
 20
19.0088
 11
-12.3944
 21
19.0783
  0
LINE
  8
0
 10
-12.3944
 20
19.0783
 11
-12.7
 21
19.2144
  0
LINE
  8
0
 10
-12.7
 20
19.2144
 11
-12.9706
 21
19.411
  0
LINE
  8
0
 10
-12.9706
 20
19.411
 11
-13.1944
 21
19.6595
  0
LINE
  8
0
 10
-13.1944
 20
19.6595
 11
-13.3617
 21
19.9492
  0
LINE
  8
0
 10
-13.3617
 20
19.9492
 11
-13.465
 21
20.2673
  0
LINE
  8
0
 10
-13.465
 20
20.2673
 11
-13.5
 21
20.6
  0
LINE
  8
0
 10
-13.5
 20
20.6
 11
-13.5
 21
27.4
  0
LINE
  8
0
 10
-13.5
 20
27.4
 11
-13.465
 21
27.7327
  0
LINE
  8
0
 10
-13.465
 20
27.7327
 11
-13.3617
 21
28.0508
  0
LINE
  8
0
 10
-13.3617
 20
28.0508
 11
-13.1944
 21
28.3405
  0
LINE
  8
0
 10
-13.1944
 20
28.3405
 11
-12.9706
 21
28.589
  0
LINE
  8
0
 10
-12.9706
 20
28.589
 11
-12.7
 21
28.7856
  0
LINE
  8
0
 10
-12.7
 20
28.7856
 11
-12.3944
 21
28.9217
  0
LINE
  8
0
 10
-12.3944
 20
28.9217
 11
-12.0672
 21
28.9912
  0
LINE
  8
0
 10
-12.0672
 20
28.9912
 11
12.0672
 21
28.9912
  0
LINE
  8
0
 10
12.0672
 20
28.9912
 11
12.3944
 21
28.9217
  0
LINE
  8
0
 10
12.3944
 20
28.9217
 11
12.7
 21
28.7856
  0
LINE
  8
0
 10
12.7
 20
28.7856
 11
12.9706
 21
28.589
  0
LINE
  8
0
 10
12.9706
 20
28.589
 11
13.1944
 21
28.3405
  0
LINE
  8
0
 10
13.1944
 20
28.3405
 11
13.3617
 21
28.0508
  0
LINE
  8
0
 10
13.3617
 20
28.0508
 11
13.465
 21
27.7327
  0
LINE
  8
0
 10
13.465
 20
27.7327
 11
13.5
 21
27.4
  0
LINE
  8
0
 10
13.5
 20
27.4
 11
13.5
 21
20.6
  0
LINE
  8
0
 10
13.5
 20
20.6
 11
13.465
 21
20.2673
  0
LINE
  8
0
 10
13.465
 20
20.2673
 11
13.3617
 21
19.9492
  0
LINE
  8
0
 10
13.3617
 20
19.9492
 11
13.1944
 21
19.6595
  0
LINE
  8
0
 10
13.1944
 20
19.6595
 11
12.9706
 21
19.411
  0
LINE
  8
0
 10
12.9706
 20
19.411
 11
12.7
 21
19.2144
  0
LINE
  8
0
 10
12.7
 20
19.2144
 11
12.3944
 21
19.0783
  0
LINE
  8
0
 10
12.3944
 20
19.0783
 11
12.0672
 21
19.0088
  0
LINE
  8
0
 10
12.0672
 20
19.0088
 11
-12.0672
 21
19.0088
  0
LINE
  8
0
 10
15.8432
 20
-9.99178
 11
15.5365
 21
-9.92657
  0
LINE
  8
0
 10
15.5365
 20
-9.92657
 11
15.25
 21
-9.79903
  0
LINE
  8
0
 10
15.25
 20
-9.79903
 11
14.9963
 21
-9.61472
  0
LINE
  8
0
 10
14.9963
 20
-9.61472
 11
14.7865
 21
-9.38167
  0
LINE
  8
0
 10
14.7865
 20
-9.38167
 11
14.6297
 21
-9.11009
  0
LINE
  8
0
 10
14.6297
 20
-9.11009
 11
14.5328
 21
-8.81186
  0
LINE
  8
0
 10
14.5328
 20
-8.81186
 11
14.5
 21
-8.5
  0
LINE
  8
0
 10
14.5
 20
-8.5
 11
14.5
 21
8.5
  0
LINE
  8
0
 10
14.5
 20
8.5
 11
14.5328
 21
8.81186
  0
LINE
  8
0
 10
14.5328
 20
8.81186
 11
14.6297
 21
9.11009
  0
LINE
  8
0
 10
14.6297
 20
9.11009
 11
14.7865
 21
9.38167
  0
LINE
  8
0
 10
14.7865
 20
9.38167
 11
14.9963
 21
9.61472
  0
LINE
  8
0
 10
14.9963
 20
9.61472
 11
15.25
 21
9.79903
  0
LINE
  8
0
 10
15.25
 20
9.79903
 11
15.5365
 21
9.92657
  0
LINE
  8
0
 10
15.5365
 20
9.92657
 11
15.8432
 21
9.99178
  0
LINE
  8
0
 10
15.8432
 20
9.99178
 11
16.1568
 21
9.99178
  0
LINE
  8
0
 10
16.1568
 20
9.99178
 11
16.4635
 21
9.92657
  0
LINE
  8
0
 10
16.4635
 20
9.92657
 11
16.75
 21
9.79903
  0
LINE
  8
0
 10
16.75
 20
9.79903
 11
17.0037
 21
9.61472
  0
LINE
  8
0
 10
17.0037
 20
9.61472
 11
17.2135
 21
9.38167
  0
LINE
  8
0
 10
17.2135
 20
9.38167
 11
17.3703
 21
9.11009
  0
LINE
  8
0
 10
17.3703
 20
9.11009
 11
17.4672
 21
8.81186
  0
LINE
  8
0
 10
17.4672
 20
8.81186
 11
17.5
 21
8.5
  0
LINE
  8
0
 10
17.5
 20
8.5
 11
17.5
 21
-8.5
  0
LINE
  8
0
 10
17.5
 20
-8.5
 11
17.4672
 21
-8.81186
  0
LINE
  8
0
 10
17.4672
 20
-8.81186
 11
17.3703
 21
-9.11009
  0
LINE
  8
0
 10
17.3703
 20
-9.11009
 11
17.2135
 21
-9.38167
  0
LINE
  8
0
 10
17.2135
 20
-9.38167
 11
17.0037
 21
-9.61472
  0
LINE
  8
0
 10
17.0037
 20
-9.61472
 11
16.75
 21
-9.79903
  0
LINE
  8
0
 10
16.75
 20
-9.79903
 11
16.4635
 21
-9.92657
  0
LINE
  8
0
 10
16.4635
 20
-9.92657
 11
16.1568
 21
-9.99178
  0
LINE
  8
0
 10
16.1568
 20
-9.99178
 11
15.8432
 21
-9.99178
  0
LINE
  8
0
 10
-16.1568
 20
-9.99178
 11
-16.4635
 21
-9.92657
  0
LINE
  8
0
 10
-16.4635
 20
-9.92657
 11
-16.75
 21
-9.79903
  0
LINE
  8
0
 10
-16.75
 20
-9.79903
 11
-17.0037
 21
-9.61472
  0
LINE
  8
0
 10
-17.0037
 20
-9.61472
 11
-17.2135
 21
-9.38167
  0
LINE
  8
0
 10
-17.2135
 20
-9.38167
 11
-17.3703
 21
-9.11009
  0
LINE
  8
0
 10
-17.3703
 20
-9.11009
 11
-17.4672
 21
-8.81186
  0
LINE
  8
0
 10
-17.4672
 20
-8.81186
 11
-17.5
 21
-8.5
  0
LINE
  8
0
 10
-17.5
 20
-8.5
 11
-17.5
 21
8.5
  0
LINE
  8
0
 10
-17.5
 20
8.5
 11
-17.4672
 21
8.81186
  0
LINE
  8
0
 10
-17.4672
 20
8.81186
 11
-17.3703
 21
9.11009
  0
LINE
  8
0
 10
-17.3703
 20
9.11009
 11
-17.2135
 21
9.38167
  0
LINE
  8
0
 10
-17.2135
 20
9.38167
 11
-17.0037
 21
9.61472
  0
LINE
  8
0
 10
-17.0037
 20
9.61472
 11
-16.75
 21
9.79903
  0
LINE
  8
0
 10
-16.75
 20
9.79903
 11
-16.4635
 21
9.92657
  0
LINE
  8
0
 10
-16.4635
 20
9.92657
 11
-16.1568
 21
9.99178
  0
LINE
  8
0
 10
-16.1568
 20
9.99178
 11
-15.8432
 21
9.99178
  0
LINE
  8
0
 10
-15.8432
 20
9.99178
 11
-15.5365
 21
9.92657
  0
LINE
  8
0
 10
-15.5365
 20
9.92657
 11
-15.25
 21
9.79903
  0
LINE
  8
0
 10
-15.25
 20
9.79903
 11
-14.9963
 21
9.61472
  0
LINE
  8
0
 10
-14.9963
 20
9.61472
 11
-14.7865
 21
9.38167
  0
LINE
  8
0
 10
-14.7865
 20
9.38167
 11
-14.6297
 21
9.11009
  0
LINE
  8
0
 10
-14.6297
 20
9.11009
 11
-14.5328
 21
8.81186
  0
LINE
  8
0
 10
-14.5328
 20
8.81186
 11
-14.5
 21
8.5
  0
LINE
  8
0
 10
-14.5
 20
8.5
 11
-14.5
 21
-8.5
  0
LINE
  8
0
 10
-14.5
 20
-8.5
 11
-14.5328
 21
-8.81186
  0
LINE
  8
0
 10
-14.5328
 20
-8.81186
 11
-14.6297
 21
-9.11009
  0
LINE
  8
0
 10
-14.6297
 20
-9.11009
 11
-14.7865
 21
-9.38167
  0
LINE
  8
0
 10
-14.7865
 20
-9.38167
 11
-14.9963
 21
-9.61472
  0
LINE
  8
0
 10
-14.9963
 20
-9.61472
 11
-15.25
 21
-9.79903
  0
LINE
  8
0
 10
-15.25
 20
-9.79903
 11
-15.5365
 21
-9.92657
  0
LINE
  8
0
 10
-15.5365
 20
-9.92657
 11
-15.8432
 21
-9.99178
  0
LINE
  8
0
 10
-15.8432
 20
-9.99178
 11
-16.1568
 21
-9.99178
  0
LINE
  8
0
 10
25.8432
 20
-9.99178
 11
25.5365
 21
-9.92657
  0
LINE
  8
0
 10
25.5365
 20
-9.92657
 11
25.25
 21
-9.79903
  0
LINE
  8
0
 10
25.25
 20
-9.79903
 11
24.9963
 21
-9.61472
  0
LINE
  8
0
 10
24.9963
 20
-9.61472
 11
24.7865
 21
-9.38167
  0
LINE
  8
0
 10
24.7865
 20
-9.38167
 11
24.6297
 21
-9.11009
  0
LINE
  8
0
 10
24.6297
 20
-9.11009
 11
24.5328
 21
-8.81186
  0
LINE
  8
0
 10
24.5328
 20
-8.81186
 11
24.5
 21
-8.5
  0
LINE
  8
0
 10
24.5
 20
-8.5
 11
24.5
 21
8.5
  0
LINE
  8
0
 10
24.5
 20
8.5
 11
24.5328
 21
8.81186
  0
LINE
  8
0
 10
24.5328
 20
8.81186
 11
24.6297
 21
9.11009
  0
LINE
  8
0
 10
24.6297
 20
9.11009
 11
24.7865
 21
9.38167
  0
LINE
  8
0
 10
24.7865
 20
9.38167
 11
24.9963
 21
9.61472
  0
LINE
  8
0
 10
24.9963
 20
9.61472
 11
25.25
 21
9.79903
  0
LINE
  8
0
 10
25.25
 20
9.79903
 11
25.5365
 21
9.92657
  0
LINE
  8
0
 10
25.5365
 20
9.92657
 11
25.8432
 21
9.99178
  0
LINE
  8
0
 10
25.8432
 20
9.99178
 11
26.1568
 21
9.99178
  0
LINE
  8
0
 10
26.1568
 20
9.99178
 11
26.4635
 21
9.92657
  0
LINE
  8
0
 10
26.4635
 20
9.92657
 11
26.75
 21
9.79903
  0
LINE
  8
0
 10
26.75
 20
9.79903
 11
27.0037
 21
9.61472
  0
LINE
  8
0
 10
27.0037
 20
9.61472
 11
27.2135
 21
9.38167
  0
LINE
  8
0
 10
27.2135
 20
9.38167
 11
27.3703
 21
9.11009
  0
LINE
  8
0
 10
27.3703
 20
9.11009
 11
27.4672
 21
8.81186
  0
LINE
  8
0
 10
27.4672
 20
8.81186
 11
27.5
 21
8.5
  0
LINE
  8
0
 10
27.5
 20
8.5
 11
27.5
 21
-8.5
  0
LINE
  8
0
 10
27.5
 20
-8.5
 11
27.4672
 21
-8.81186
  0
LINE
  8
0
 10
27.4672
 20
-8.81186
 11
27.3703
 21
-9.11009
  0
LINE
  8
0
 10
27.3703
 20
-9.11009
 11
27.2135
 21
-9.38167
  0
LINE
  8
0
 10
27.2135
 20
-9.38167
 11
27.0037
 21
-9.61472
  0
LINE
  8
0
 10
27.0037
 20
-9.61472
 11
26.75
 21
-9.79903
  0
LINE
  8
0
 10
26.75
 20
-9.79903
 11
26.4635
 21
-9.92657
  0
LINE
  8
0
 10
26.4635
 20
-9.92657
 11
26.1568
 21
-9.99178
  0
LINE
  8
0
 10
26.1568
 20
-9.99178
 11
25.8432
 21
-9.99178
  0
LINE
  8
0
 10
-26.1568
 20
-9.99178
 11
-26.4635
 21
-9.92657
  0
LINE
  8
0
 10
-26.4635
 20
-9.92657
 11
-26.75
 21
-9.79903
  0
LINE
  8
0
 10
-26.75
 20
-9.79903
 11
-27.0037
 21
-9.61472
  0
LINE
  8
0
 10
-27.0037
 20
-9.61472
 11
-27.2135
 21
-9.38167
  0
LINE
  8
0
 10
-27.2135
 20
-9.38167
 11
-27.3703
 21
-9.11009
  0
LINE
  8
0
 10
-27.3703
 20
-9.11009
 11
-27.4672
 21
-8.81186
  0
LINE
  8
0
 10
-27.4672
 20
-8.81186
 11
-27.5
 21
-8.5
  0
LINE
  8
0
 10
-27.5
 20
-8.5
 11
-27.5
 21
8.5
  0
LINE
  8
0
 10
-27.5
 20
8.5
 11
-27.4672
 21
8.81186
  0
LINE
  8
0
 10
-27.4672
 20
8.81186
 11
-27.3703
 21
9.11009
  0
LINE
  8
0
 10
-27.3703
 20
9.11009
 11
-27.2135
 21
9.38167
  0
LINE
  8
0
 10
-27.2135
 20
9.38167
 11
-27.0037
 21
9.61472
  0
LINE
  8
0
 10
-27.0037
 20
9.61472
 11
-26.75
 21
9.79903
  0
LINE
  8
0
 10
-26.75
 20
9.79903
 11
-26.4635
 21
9.92657
  0
LINE
  8
0
 10
-26.4635
 20
9.92657
 11
-26.1568
 21
9.99178
  0
LINE
  8
0
 10
-26.1568
 20
9.99178
 11
-25.8432
 21
9.99178
  0
LINE
  8
0
 10
-25.8432
 20
9.99178
 11
-25.5365
 21
9.92657
  0
LINE
  8
0
 10
-25.5365
 20
9.92657
 11
-25.25
 21
9.79903
  0
LINE
  8
0
 10
-25.25
 20
9.79903
 11
-24.9963
 21
9.61472
  0
LINE
  8
0
 10
-24.9963
 20
9.61472
 11
-24.7865
 21
9.38167
  0
LINE
  8
0
 10
-24.7865
 20
9.38167
 11
-24.6297
 21
9.11009
  0
LINE
  8
0
 10
-24.6297
 20
9.11009
 11
-24.5328
 21
8.81186
  0
LINE
  8
0
 10
-24.5328
 20
8.81186
 11
-24.5
 21
8.5
  0
LINE
  8
0
 10
-24.5
 20
8.5
 11
-24.5
 21
-8.5
  0
LINE
  8
0
 10
-24.5
 20
-8.5
 11
-24.5328
 21
-8.81186
  0
LINE
  8
0
 10
-24.5328
 20
-8.81186
 11
-24.6297
 21
-9.11009
  0
LINE
  8
0
 10
-24.6297
 20
-9.11009
 11
-24.7865
 21
-9.38167
  0
LINE
  8
0
 10
-24.7865
 20
-9.38167
 11
-24.9963
 21
-9.61472
  0
LINE
  8
0
 10
-24.9963
 20
-9.61472
 11
-25.25
 21
-9.79903
  0
LINE
  8
0
 10
-25.25
 20
-9.79903
 11
-25.5365
 21
-9.92657
  0
LINE
  8
0
 10
-25.5365
 20
-9.92657
 11
-25.8432
 21
-9.99178
  0
LINE
  8
0
 10
-25.8432
 20
-9.99178
 11
-26.1568
 21
-9.99178
  0
LINE
  8
0
 10
-4.91724
 20
-6.34123
 11
-5.24442
 21
-6.27168
  0
LINE
  8
0
 10
-5.24442
 20
-6.27168
 11
-5.54999
 21
-6.13564
  0
LINE
  8
0
 10
-5.54999
 20
-6.13564
 11
-5.8206
 21
-5.93903
  0
LINE
  8
0
 10
-5.8206
 20
-5.93903
 11
-6.04442
 21
-5.69044
  0
LINE
  8
0
 10
-6.04442
 20
-5.69044
 11
-6.21167
 21
-5.40077
  0
LINE
  8
0
 10
-6.21167
 20
-5.40077
 11
-6.31503
 21
-5.08266
  0
LINE
  8
0
 10
-6.31503
 20
-5.08266
 11
-6.34999
 21
-4.75
  0
LINE
  8
0
 10
-6.34999
 20
-4.75
 11
-6.34999
 21
4.75
  0
LINE
  8
0
 10
-6.34999
 20
4.75
 11
-6.31503
 21
5.08266
  0
LINE
  8
0
 10
-6.31503
 20
5.08266
 11
-6.21167
 21
5.40077
  0
LINE
  8
0
 10
-6.21167
 20
5.40077
 11
-6.04442
 21
5.69044
  0
LINE
  8
0
 10
-6.04442
 20
5.69044
 11
-5.8206
 21
5.93903
  0
LINE
  8
0
 10
-5.8206
 20
5.93903
 11
-5.54999
 21
6.13564
  0
LINE
  8
0
 10
-5.54999
 20
6.13564
 11
-5.24442
 21
6.27168
  0
LINE
  8
0
 10
-5.24442
 20
6.27168
 11
-4.91724
 21
6.34123
  0
LINE
  8
0
 10
-4.91724
 20
6.34123
 11
4.91724
 21
6.34123
  0
LINE
  8
0
 10
4.91724
 20
6.34123
 11
5.24442
 21
6.27168
  0
LINE
  8
0
 10
5.24442
 20
6.27168
 11
5.54999
 21
6.13564
  0
LINE
  8
0
 10
5.54999
 20
6.13564
 11
5.8206
 21
5.93903
  0
LINE
  8
0
 10
5.8206
 20
5.93903
 11
6.04442
 21
5.69044
  0
LINE
  8
0
 10
6.04442
 20
5.69044
 11
6.21167
 21
5.40077
  0
LINE
  8
0
 10
6.21167
 20
5.40077
 11
6.31503
 21
5.08266
  0
LINE
  8
0
 10
6.31503
 20
5.08266
 11
6.34999
 21
4.75
  0
LINE
  8
0
 10
6.34999
 20
4.75
 11
6.34999
 21
-4.75
  0
LINE
  8
0
 10
6.34999
 20
-4.75
 11
6.31503
 21
-5.08266
  0
LINE
  8
0
 10
6.31503
 20
-5.08266
 11
6.21167
 21
-5.40077
  0
LINE
  8
0
 10
6.21167
 20
-5.40077
 11
6.04442
 21
-5.69044
  0
LINE
  8
0
 10
6.04442
 20
-5.69044
 11
5.8206
 21
-5.93903
  0
LINE
  8
0
 10
5.8206
 20
-5.93903
 11
5.54999
 21
-6.13564
  0
LINE
  8
0
 10
5.54999
 20
-6.13564
 11
5.24442
 21
-6.27168
  0
LINE
  8
0
 10
5.24442
 20
-6.27168
 11
4.91724
 21
-6.34123
  0
LINE
  8
0
 10
4.91724
 20
-6.34123
 11
-4.91724
 21
-6.34123
  0
LINE
  8
0
 10
-12.0672
 20
-28.9912
 11
-12.3944
 21
-28.9217
  0
LINE
  8
0
 10
-12.3944
 20
-28.9217
 11
-12.7
 21
-28.7856
  0
LINE
  8
0
 10
-12.7
 20
-28.7856
 11
-12.9706
 21
-28.589
  0
LINE
  8
0
 10
-12.9706
 20
-28.589
 11
-13.1944
 21
-28.3405
  0
LINE
  8
0
 10
-13.1944
 20
-28.3405
 11
-13.3617
 21
-28.0508
  0
LINE
  8
0
 10
-13.3617
 20
-28.0508
 11
-13.465
 21
-27.7327
  0
LINE
  8
0
 10
-13.465
 20
-27.7327
 11
-13.5
 21
-27.4
  0
LINE
  8
0
 10
-13.5
 20
-27.4
 11
-13.5
 21
-20.6
  0
LINE
  8
0
 10
-13.5
 20
-20.6
 11
-13.465
 21
-20.2673
  0
LINE
  8
0
 10
-13.465
 20
-20.2673
 11
-13.3617
 21
-19.9492
  0
LINE
  8
0
 10
-13.3617
 20
-19.9492
 11
-13.1944
 21
-19.6595
  0
LINE
  8
0
 10
-13.1944
 20
-19.6595
 11
-12.9706
 21
-19.411
  0
LINE
  8
0
 10
-12.9706
 20
-19.411
 11
-12.7
 21
-19.2144
  0
LINE
  8
0
 10
-12.7
 20
-19.2144
 11
-12.3944
 21
-19.0783
  0
LINE
  8
0
 10
-12.3944
 20
-19.0783
 11
-12.0672
 21
-19.0088
  0
LINE
  8
0
 10
-12.0672
 20
-19.0088
 11
12.0672
 21
-19.0088
  0
LINE
  8
0
 10
12.0672
 20
-19.0088
 11
12.3944
 21
-19.0783
  0
LINE
  8
0
 10
12.3944
 20
-19.0783
 11
12.7
 21
-19.2144
  0
LINE
  8
0
 10
12.7
 20
-19.2144
 11
12.9706
 21
-19.411
  0
LINE
  8
0
 10
12.9706
 20
-19.411
 11
13.1944
 21
-19.6595
  0
LINE
  8
0
 10
13.1944
 20
-19.6595
 11
13.3617
 21
-19.9492
  0
LINE
  8
0
 10
13.3617
 20
-19.9492
 11
13.465
 21
-20.2673
  0
LINE
  8
0
 10
13.465
 20
-20.2673
 11
13.5
 21
-20.6
  0
LINE
  8
0
 10
13.5
 20
-20.6
 11
13.5
 21
-27.4
  0
LINE
  8
0
 10
13.5
 20
-27.4
 11
13.465
 21
-27.7327
  0
LINE
  8
0
 10
13.465
 20
-27.7327
 11
13.3617
 21
-28.0508
  0
LINE
  8
0
 10
13.3617
 20
-28.0508
 11
13.1944
 21
-28.3405
  0
LINE
  8
0
 10
13.1944
 20
-28.3405
 11
12.9706
 21
-28.589
  0
LINE
  8
0
 10
12.9706
 20
-28.589
 11
12.7
 21
-28.7856
  0
LINE
  8
0
 10
12.7
 20
-28.7856
 11
12.3944
 21
-28.9217
  0
LINE
  8
0
 10
12.3944
 20
-28.9217
 11
12.0672
 21
-28.9912
  0
LINE
  8
0
 10
12.0672
 20
-28.9912
 11
-12.0672
 21
-28.9912
  0
LINE
  8
0
 10
28.7176
 20
-30.7198
 11
28.3642
 21
-30.6251
  0
LINE
  8
0
 10
28.3642
 20
-30.6251
 11
28.0383
 21
-30.459
  0
LINE
  8
0
 10
28.0383
 20
-30.459
 11
27.7539
 21
-30.2288
  0
LINE
  8
0
 10
27.7539
 20
-30.2288
 11
27.5237
 21
-29.9445
  0
LINE
  8
0
 10
27.5237
 20
-29.9445
 11
27.3576
 21
-29.6185
  0
LINE
  8
0
 10
27.3576
 20
-29.6185
 11
27.2629
 21
-29.2651
  0
LINE
  8
0
 10
27.2629
 20
-29.2651
 11
27.2438
 21
-28.8998
  0
LINE
  8
0
 10
27.2438
 20
-28.8998
 11
27.301
 21
-28.5384
  0
LINE
  8
0
 10
27.301
 20
-28.5384
 11
27.4321
 21
-28.1969
  0
LINE
  8
0
 10
27.4321
 20
-28.1969
 11
27.6314
 21
-27.8901
  0
LINE
  8
0
 10
27.6314
 20
-27.8901
 11
27.8901
 21
-27.6314
  0
LINE
  8
0
 10
27.8901
 20
-27.6314
 11
28.1969
 21
-27.4321
  0
LINE
  8
0
 10
28.1969
 20
-27.4321
 11
28.5384
 21
-27.301
  0
LINE
  8
0
 10
28.5384
 20
-27.301
 11
28.8998
 21
-27.2438
  0
LINE
  8
0
 10
28.8998
 20
-27.2438
 11
29.2651
 21
-27.2629
  0
LINE
  8
0
 10
29.2651
 20
-27.2629
 11
29.6185
 21
-27.3576
  0
LINE
  8
0
 10
29.6185
 20
-27.3576
 11
29.9445
 21
-27.5237
  0
LINE
  8
0
 10
29.9445
 20
-27.5237
 11
30.2288
 21
-27.7539
  0
LINE
  8
0
 10
30.2288
 20
-27.7539
 11
30.459
 21
-28.0383
  0
LINE
  8
0
 10
30.459
 20
-28.0383
 11
30.6251
 21
-28.3642
  0
LINE
  8
0
 10
30.6251
 20
-28.3642
 11
30.7198
 21
-28.7176
  0
LINE
  8
0
 10
30.7198
 20
-28.7176
 11
30.739
 21
-29.083
  0
LINE
  8
0
 10
30.739
 20
-29.083
 11
30.6817
 21
-29.4443
  0
LINE
  8
0
 10
30.6817
 20
-29.4443
 11
30.5506
 21
-29.7859
  0
LINE
  8
0
 10
30.5506
 20
-29.7859
 11
30.3514
 21
-30.0927
  0
LINE
  8
0
 10
30.3514
 20
-30.0927
 11
30.0927
 21
-30.3514
  0
LINE
  8
0
 10
30.0927
 20
-30.3514
 11
29.7859
 21
-30.5506
  0
LINE
  8
0
 10
29.7859
 20
-30.5506
 11
29.4443
 21
-30.6817
  0
LINE
  8
0
 10
29.4443
 20
-30.6817
 11
29.083
 21
-30.739
  0
LINE
  8
0
 10
29.083
 20
-30.739
 11
28.7176
 21
-30.7198
  0
LINE
  8
0
 10
-29.4443
 20
-30.6817
 11
-29.7859
 21
-30.5506
  0
LINE
  8
0
 10
-29.7859
 20
-30.5506
 11
-30.0927
 21
-30.3514
  0
LINE
  8
0
 10
-30.0927
 20
-30.3514
 11
-30.3514
 21
-30.0927
  0
LINE
  8
0
 10
-30.3514
 20
-30.0927
 11
-30.5506
 21
-29.7859
  0
LINE
  8
0
 10
-30.5506
 20
-29.7859
 11
-30.6817
 21
-29.4443
  0
LINE
  8
0
 10
-30.6817
 20
-29.4443
 11
-30.739
 21
-29.083
  0
LINE
  8
0
 10
-30.739
 20
-29.083
 11
-30.7198
 21
-28.7176
  0
LINE
  8
0
 10
-30.7198
 20
-28.7176
 11
-30.6251
 21
-28.3642
  0
LINE
  8
0
 10
-30.6251
 20
-28.3642
 11
-30.459
 21
-28.0383
  0
LINE
  8
0
 10
-30.459
 20
-28.0383
 11
-30.2288
 21
-27.7539
  0
LINE
  8
0
 10
-30.2288
 20
-27.7539
 11
-29.9445
 21
-27.5237
  0
LINE
  8
0
 10
-29.9445
 20
-27.5237
 11
-29.6185
 21
-27.3576
  0
LINE
  8
0
 10
-29.6185
 20
-27.3576
 11
-29.2651
 21
-27.2629
  0
LINE
  8
0
 10
-29.2651
 20
-27.2629
 11
-28.8998
 21
-27.2438
  0
LINE
  8
0
 10
-28.8998
 20
-27.2438
 11
-28.5384
 21
-27.301
  0
LINE
  8
0
 10
-28.5384
 20
-27.301
 11
-28.1969
 21
-27.4321
  0
LINE
  8
0
 10
-28.1969
 20
-27.4321
 11
-27.8901
 21
-27.6314
  0
LINE
  8
0
 10
-27.8901
 20
-27.6314
 11
-27.6314
 21
-27.8901
  0
LINE
  8
0
 10
-27.6314
 20
-27.8901
 11
-27.4321
 21
-28.1969
  0
LINE
  8
0
 10
-27.4321
 20
-28.1969
 11
-27.301
 21
-28.5384
  0
LINE
  8
0
 10
-27.301
 20
-28.5384
 11
-27.2438
 21
-28.8998
  0
LINE
  8
0
 10
-27.2438
 20
-28.8998
 11
-27.2629
 21
-29.2651
  0
LINE
  8
0
 10
-27.2629
 20
-29.2651
 11
-27.3576
 21
-29.6185
  0
LINE
  8
0
 10
-27.3576
 20
-29.6185
 11
-27.5237
 21
-29.9445
  0
LINE
  8
0
 10
-27.5237
 20
-29.9445
 11
-27.7539
 21
-30.2288
  0
LINE
  8
0
 10
-27.7539
 20
-30.2288
 11
-28.0383
 21
-30.459
  0
LINE
  8
0
 10
-28.0383
 20
-30.459
 11
-28.3642
 21
-30.6251
  0
LINE
  8
0
 10
-28.3642
 20
-30.6251
 11
-28.7176
 21
-30.7198
  0
LINE
  8
0
 10
-28.7176
 20
-30.7198
 11
-29.083
 21
-30.739
  0
LINE
  8
0
 10
-29.083
 20
-30.739
 11
-29.4443
 21
-30.6817
  0
LINE
  8
0
 10
-7.5
 20
-41.25
 11
-7.75989
 21
-41.2227
  0
LINE
  8
0
 10
-7.75989
 20
-41.2227
 11
-8.00841
 21
-41.1419
  0
LINE
  8
0
 10
-8.00841
 20
-41.1419
 11
-8.23473
 21
-41.0113
  0
LINE
  8
0
 10
-8.23473
 20
-41.0113
 11
-8.42892
 21
-40.8364
  0
LINE
  8
0
 10
-8.42892
 20
-40.8364
 11
-8.58252
 21
-40.625
  0
LINE
  8
0
 10
-8.58252
 20
-40.625
 11
-8.68881
 21
-40.3863
  0
LINE
  8
0
 10
-8.68881
 20
-40.3863
 11
-8.74315
 21
-40.1306
  0
LINE
  8
0
 10
-8.74315
 20
-40.1306
 11
-8.74315
 21
-39.8694
  0
LINE
  8
0
 10
-8.74315
 20
-39.8694
 11
-8.68881
 21
-39.6137
  0
LINE
  8
0
 10
-8.68881
 20
-39.6137
 11
-8.58252
 21
-39.375
  0
LINE
  8
0
 10
-8.58252
 20
-39.375
 11
-8.42892
 21
-39.1636
  0
LINE
  8
0
 10
-8.42892
 20
-39.1636
 11
-8.23473
 21
-38.9887
  0
LINE
  8
0
 10
-8.23473
 20
-38.9887
 11
-8.00841
 21
-38.8581
  0
LINE
  8
0
 10
-8.00841
 20
-38.8581
 11
-7.75989
 21
-38.7773
  0
LINE
  8
0
 10
-7.75989
 20
-38.7773
 11
-7.5
 21
-38.75
  0
LINE
  8
0
 10
-7.5
 20
-38.75
 11
7.5
 21
-38.75
  0
LINE
  8
0
 10
7.5
 20
-38.75
 11
7.75989
 21
-38.7773
  0
LINE
  8
0
 10
7.75989
 20
-38.7773
 11
8.00841
 21
-38.8581
  0
LINE
  8
0
 10
8.00841
 20
-38.8581
 11
8.23473
 21
-38.9887
  0
LINE
  8
0
 10
8.23473
 20
-38.9887
 11
8.42892
 21
-39.1636
  0
LINE
  8
0
 10
8.42892
 20
-39.1636
 11
8.58252
 21
-39.375
  0
LINE
  8
0
 10
8.58252
 20
-39.375
 11
8.68881
 21
-39.6137
  0
LINE
  8
0
 10
8.68881
 20
-39.6137
 11
8.74315
 21
-39.8694
  0
LINE
  8
0
 10
8.74315
 20
-39.8694
 11
8.74315
 21
-40.1306
  0
LINE
  8
0
 10
8.74315
 20
-40.1306
 11
8.68881
 21
-40.3863
  0
LINE
  8
0
 10
8.68881
 20
-40.3863
 11
8.58252
 21
-40.625
  0
LINE
  8
0
 10
8.58252
 20
-40.625
 11
8.42892
 21
-40.8364
  0
LINE
  8
0
 10
8.42892
 20
-40.8364
 11
8.23473
 21
-41.0113
  0
LINE
  8
0
 10
8.23473
 20
-41.0113
 11
8.00841
 21
-41.1419
  0
LINE
  8
0
 10
8.00841
 20
-41.1419
 11
7.75989
 21
-41.2227
  0
LINE
  8
0
 10
7.75989
 20
-41.2227
 11
7.5
 21
-41.25
  0
LINE
  8
0
 10
7.5
 20
-41.25
 11
-7.5
 21
-41.25
  0
LINE
  8
0
 10
-13.1306
 20
-57.5231
 11
-13.3863
 21
-57.4688
  0
LINE
  8
0
 10
-13.3863
 20
-57.4688
 11
-13.625
 21
-57.3625
  0
LINE
  8
0
 10
-13.625
 20
-57.3625
 11
-13.8364
 21
-57.2089
  0
LINE
  8
0
 10
-13.8364
 20
-57.2089
 11
-14.0113
 21
-57.0147
  0
LINE
  8
0
 10
-14.0113
 20
-57.0147
 11
-14.1419
 21
-56.7884
  0
LINE
  8
0
 10
-14.1419
 20
-56.7884
 11
-14.2227
 21
-56.5399
  0
LINE
  8
0
 10
-14.2227
 20
-56.5399
 11
-14.25
 21
-56.28
  0
LINE
  8
0
 10
-14.25
 20
-56.28
 11
-14.25
 21
-46.28
  0
LINE
  8
0
 10
-14.25
 20
-46.28
 11
-14.2227
 21
-46.0201
  0
LINE
  8
0
 10
-14.2227
 20
-46.0201
 11
-14.1419
 21
-45.7716
  0
LINE
  8
0
 10
-14.1419
 20
-45.7716
 11
-14.0113
 21
-45.5453
  0
LINE
  8
0
 10
-14.0113
 20
-45.5453
 11
-13.8364
 21
-45.3511
  0
LINE
  8
0
 10
-13.8364
 20
-45.3511
 11
-13.625
 21
-45.1975
  0
LINE
  8
0
 10
-13.625
 20
-45.1975
 11
-13.3863
 21
-45.0912
  0
LINE
  8
0
 10
-13.3863
 20
-45.0912
 11
-13.1306
 21
-45.0368
  0
LINE
  8
0
 10
-13.1306
 20
-45.0368
 11
-12.8694
 21
-45.0368
  0
LINE
  8
0
 10
-12.8694
 20
-45.0368
 11
-12.6137
 21
-45.0912
  0
LINE
  8
0
 10
-12.6137
 20
-45.0912
 11
-12.375
 21
-45.1975
  0
LINE
  8
0
 10
-12.375
 20
-45.1975
 11
-12.1636
 21
-45.3511
  0
LINE
  8
0
 10
-12.1636
 20
-45.3511
 11
-11.9887
 21
-45.5453
  0
LINE
  8
0
 10
-11.9887
 20
-45.5453
 11
-11.8581
 21
-45.7716
  0
LINE
  8
0
 10
-11.8581
 20
-45.7716
 11
-11.7773
 21
-46.0201
  0
LINE
  8
0
 10
-11.7773
 20
-46.0201
 11
-11.75
 21
-46.28
  0
LINE
  8
0
 10
-11.75
 20
-46.28
 11
-11.75
 21
-56.28
  0
LINE
  8
0
 10
-11.75
 20
-56.28
 11
-11.7773
 21
-56.5399
  0
LINE
  8
0
 10
-11.7773
 20
-56.5399
 11
-11.8581
 21
-56.7884
  0
LINE
  8
0
 10
-11.8581
 20
-56.7884
 11
-11.9887
 21
-57.0147
  0
LINE
  8
0
 10
-11.9887
 20
-57.0147
 11
-12.1636
 21
-57.2089
  0
LINE
  8
0
 10
-12.1636
 20
-57.2089
 11
-12.375
 21
-57.3625
  0
LINE
  8
0
 10
-12.375
 20
-57.3625
 11
-12.6137
 21
-57.4688
  0
LINE
  8
0
 10
-12.6137
 20
-57.4688
 11
-12.8694
 21
-57.5231
  0
LINE
  8
0
 10
-12.8694
 20
-57.5231
 11
-13.1306
 21
-57.5231
  0
LINE
  8
0
 10
12.8694
 20
-57.5231
 11
12.6137
 21
-57.4688
  0
LINE
  8
0
 10
12.6137
 20
-57.4688
 11
12.375
 21
-57.3625
  0
LINE
  8
0
 10
12.375
 20
-57.3625
 11
12.1636
 21
-57.2089
  0
LINE
  8
0
 10
12.1636
 20
-57.2089
 11
11.9887
 21
-57.0147
  0
LINE
  8
0
 10
11.9887
 20
-57.0147
 11
11.8581
 21
-56.7884
  0
LINE
  8
0
 10
11.8581
 20
-56.7884
 11
11.7773
 21
-56.5399
  0
LINE
  8
0
 10
11.7773
 20
-56.5399
 11
11.75
 21
-56.28
  0
LINE
  8
0
 10
11.75
 20
-56.28
 11
11.75
 21
-46.28
  0
LINE
  8
0
 10
11.75
 20
-46.28
 11
11.7773
 21
-46.0201
  0
LINE
  8
0
 10
11.7773
 20
-46.0201
 11
11.8581
 21
-45.7716
  0
LINE
  8
0
 10
11.8581
 20
-45.7716
 11
11.9887
 21
-45.5453
  0
LINE
  8
0
 10
11.9887
 20
-45.5453
 11
12.1636
 21
-45.3511
  0
LINE
  8
0
 10
12.1636
 20
-45.3511
 11
12.375
 21
-45.1975
  0
LINE
  8
0
 10
12.375
 20
-45.1975
 11
12.6137
 21
-45.0912
  0
LINE
  8
0
 10
12.6137
 20
-45.0912
 11
12.8694
 21
-45.0368
  0
LINE
  8
0
 10
12.8694
 20
-45.0368
 11
13.1306
 21
-45.0368
  0
LINE
  8
0
 10
13.1306
 20
-45.0368
 11
13.3863
 21
-45.0912
  0
LINE
  8
0
 10
13.3863
 20
-45.0912
 11
13.625
 21
-45.1975
  0
LINE
  8
0
 10
13.625
 20
-45.1975
 11
13.8364
 21
-45.3511
  0
LINE
  8
0
 10
13.8364
 20
-45.3511
 11
14.0113
 21
-45.5453
  0
LINE
  8
0
 10
14.0113
 20
-45.5453
 11
14.1419
 21
-45.7716
  0
LINE
  8
0
 10
14.1419
 20
-45.7716
 11
14.2227
 21
-46.0201
  0
LINE
  8
0
 10
14.2227
 20
-46.0201
 11
14.25
 21
-46.28
  0
LINE
  8
0
 10
14.25
 20
-46.28
 11
14.25
 21
-56.28
  0
LINE
  8
0
 10
14.25
 20
-56.28
 11
14.2227
 21
-56.5399
  0
LINE
  8
0
 10
14.2227
 20
-56.5399
 11
14.1419
 21
-56.7884
  0
LINE
  8
0
 10
14.1419
 20
-56.7884
 11
14.0113
 21
-57.0147
  0
LINE
  8
0
 10
14.0113
 20
-57.0147
 11
13.8364
 21
-57.2089
  0
LINE
  8
0
 10
13.8364
 20
-57.2089
 11
13.625
 21
-57.3625
  0
LINE
  8
0
 10
13.625
 20
-57.3625
 11
13.3863
 21
-57.4688
  0
LINE
  8
0
 10
13.3863
 20
-57.4688
 11
13.1306
 21
-57.5231
  0
LINE
  8
0
 10
13.1306
 20
-57.5231
 11
12.8694
 21
-57.5231
  0
ENDSEC
  0
SECTION
  2
OBJECTS
  0
DICTIONARY
  0
ENDSEC
  0
EOF
