  0
SECTION
  2
BLOCKS
  0
ENDSEC
  0
SECTION
  2
ENTITIES
  0
LINE
  8
0
 10
38.694
 20
-26.3598
 11
37.3526
 21
-23.75
  0
LINE
  8
0
 10
37.3526
 20
-23.75
 11
35.4392
 21
-20.0744
  0
LINE
  8
0
 10
35.4392
 20
-20.0744
 11
33.8535
 21
-16.246
  0
LINE
  8
0
 10
33.8535
 20
-16.246
 11
32.6074
 21
-12.2939
  0
LINE
  8
0
 10
32.6074
 20
-12.2939
 11
31.7105
 21
-8.24829
  0
LINE
  8
0
 10
31.7105
 20
-8.24829
 11
31.1696
 21
-4.13991
  0
LINE
  8
0
 10
31.1696
 20
-4.13991
 11
30.9889
 21
0
  0
LINE
  8
0
 10
30.9889
 20
0
 11
31.1696
 21
4.13991
  0
LINE
  8
0
 10
31.1696
 20
4.13991
 11
31.7105
 21
8.24829
  0
LINE
  8
0
 10
31.7105
 20
8.24829
 11
32.6074
 21
12.2939
  0
LINE
  8
0
 10
32.6074
 20
12.2939
 11
33.8535
 21
16.246
  0
LINE
  8
0
 10
33.8535
 20
16.246
 11
35.4392
 21
20.0744
  0
LINE
  8
0
 10
35.4392
 20
20.0744
 11
37.3526
 21
23.75
  0
LINE
  8
0
 10
37.3526
 20
23.75
 11
38.694
 21
26.3598
  0
LINE
  8
0
 10
38.694
 20
26.3598
 11
26.3598
 21
38.694
  0
LINE
  8
0
 10
26.3598
 20
38.694
 11
23.75
 21
37.3526
  0
LINE
  8
0
 10
23.75
 20
37.3526
 11
20.0744
 21
35.4392
  0
LINE
  8
0
 10
20.0744
 20
35.4392
 11
16.246
 21
33.8535
  0
LINE
  8
0
 10
16.246
 20
33.8535
 11
12.2939
 21
32.6074
  0
LINE
  8
0
 10
12.2939
 20
32.6074
 11
8.24829
 21
31.7105
  0
LINE
  8
0
 10
8.24829
 20
31.7105
 11
4.13991
 21
31.1696
  0
LINE
  8
0
 10
4.13991
 20
31.1696
 11
0
 21
30.9889
  0
LINE
  8
0
 10
0
 20
30.9889
 11
-4.13991
 21
31.1696
  0
LINE
  8
0
 10
-4.13991
 20
31.1696
 11
-8.24829
 21
31.7105
  0
LINE
  8
0
 10
-8.24829
 20
31.7105
 11
-12.2939
 21
32.6074
  0
LINE
  8
0
 10
-12.2939
 20
32.6074
 11
-16.246
 21
33.8535
  0
LINE
  8
0
 10
-16.246
 20
33.8535
 11
-20.0744
 21
35.4392
  0
LINE
  8
0
 10
-20.0744
 20
35.4392
 11
-23.75
 21
37.3526
  0
LINE
  8
0
 10
-23.75
 20
37.3526
 11
-26.3598
 21
38.694
  0
LINE
  8
0
 10
-26.3598
 20
38.694
 11
-38.694
 21
26.3598
  0
LINE
  8
0
 10
-38.694
 20
26.3598
 11
-37.3526
 21
23.75
  0
LINE
  8
0
 10
-37.3526
 20
23.75
 11
-35.4392
 21
20.0744
  0
LINE
  8
0
 10
-35.4392
 20
20.0744
 11
-33.8535
 21
16.246
  0
LINE
  8
0
 10
-33.8535
 20
16.246
 11
-32.6074
 21
12.2939
  0
LINE
  8
0
 10
-32.6074
 20
12.2939
 11
-31.7105
 21
8.24829
  0
LINE
  8
0
 10
-31.7105
 20
8.24829
 11
-31.1696
 21
4.13991
  0
LINE
  8
0
 10
-31.1696
 20
4.13991
 11
-30.9889
 21
0
  0
LINE
  8
0
 10
-30.9889
 20
0
 11
-31.1696
 21
-4.13991
  0
LINE
  8
0
 10
-31.1696
 20
-4.13991
 11
-31.7105
 21
-8.24829
  0
LINE
  8
0
 10
-31.7105
 20
-8.24829
 11
-32.6074
 21
-12.2939
  0
LINE
  8
0
 10
-32.6074
 20
-12.2939
 11
-33.8535
 21
-16.246
  0
LINE
  8
0
 10
-33.8535
 20
-16.246
 11
-35.4392
 21
-20.0744
  0
LINE
  8
0
 10
-35.4392
 20
-20.0744
 11
-37.3526
 21
-23.75
  0
LINE
  8
0
 10
-37.3526
 20
-23.75
 11
-38.694
 21
-26.3598
  0
LINE
  8
0
 10
-38.694
 20
-26.3598
 11
-26.3598
 21
-38.694
  0
LINE
  8
0
 10
-26.3598
 20
-38.694
 11
-23.75
 21
-37.3526
  0
LINE
  8
0
 10
-23.75
 20
-37.3526
 11
-20.0744
 21
-35.4392
  0
LINE
  8
0
 10
-20.0744
 20
-35.4392
 11
-16.246
 21
-33.8535
  0
LINE
  8
0
 10
-16.246
 20
-33.8535
 11
-12.2939
 21
-32.6074
  0
LINE
  8
0
 10
-12.2939
 20
-32.6074
 11
-8.24829
 21
-31.7105
  0
LINE
  8
0
 10
-8.24829
 20
-31.7105
 11
-4.13991
 21
-31.1696
  0
LINE
  8
0
 10
-4.13991
 20
-31.1696
 11
0
 21
-30.9889
  0
LINE
  8
0
 10
0
 20
-30.9889
 11
4.13991
 21
-31.1696
  0
LINE
  8
0
 10
4.13991
 20
-31.1696
 11
8.24829
 21
-31.7105
  0
LINE
  8
0
 10
8.24829
 20
-31.7105
 11
12.2939
 21
-32.6074
  0
LINE
  8
0
 10
12.2939
 20
-32.6074
 11
16.246
 21
-33.8535
  0
LINE
  8
0
 10
16.246
 20
-33.8535
 11
20.0744
 21
-35.4392
  0
LINE
  8
0
 10
20.0744
 20
-35.4392
 11
23.75
 21
-37.3526
  0
LINE
  8
0
 10
23.75
 20
-37.3526
 11
26.3598
 21
-38.694
  0
LINE
  8
0
 10
26.3598
 20
-38.694
 11
38.694
 21
-26.3598
  0
LINE
  8
0
 10
-29.2651
 20
27.2629
 11
-29.6185
 21
27.3576
  0
LINE
  8
0
 10
-29.6185
 20
27.3576
 11
-29.9445
 21
27.5237
  0
LINE
  8
0
 10
-29.9445
 20
27.5237
 11
-30.2288
 21
27.7539
  0
LINE
  8
0
 10
-30.2288
 20
27.7539
 11
-30.459
 21
28.0383
  0
LINE
  8
0
 10
-30.459
 20
28.0383
 11
-30.6251
 21
28.3642
  0
LINE
  8
0
 10
-30.6251
 20
28.3642
 11
-30.7198
 21
28.7176
  0
LINE
  8
0
 10
-30.7198
 20
28.7176
 11
-30.739
 21
29.0829
  0
LINE
  8
0
 10
-30.739
 20
29.0829
 11
-30.6817
 21
29.4443
  0
LINE
  8
0
 10
-30.6817
 20
29.4443
 11
-30.5506
 21
29.7859
  0
LINE
  8
0
 10
-30.5506
 20
29.7859
 11
-30.3514
 21
30.0927
  0
LINE
  8
0
 10
-30.3514
 20
30.0927
 11
-30.0927
 21
30.3514
  0
LINE
  8
0
 10
-30.0927
 20
30.3514
 11
-29.7859
 21
30.5506
  0
LINE
  8
0
 10
-29.7859
 20
30.5506
 11
-29.4443
 21
30.6817
  0
LINE
  8
0
 10
-29.4443
 20
30.6817
 11
-29.0829
 21
30.739
  0
LINE
  8
0
 10
-29.0829
 20
30.739
 11
-28.7176
 21
30.7198
  0
LINE
  8
0
 10
-28.7176
 20
30.7198
 11
-28.3642
 21
30.6251
  0
LINE
  8
0
 10
-28.3642
 20
30.6251
 11
-28.0383
 21
30.459
  0
LINE
  8
0
 10
-28.0383
 20
30.459
 11
-27.7539
 21
30.2288
  0
LINE
  8
0
 10
-27.7539
 20
30.2288
 11
-27.5237
 21
29.9445
  0
LINE
  8
0
 10
-27.5237
 20
29.9445
 11
-27.3576
 21
29.6185
  0
LINE
  8
0
 10
-27.3576
 20
29.6185
 11
-27.2629
 21
29.2651
  0
LINE
  8
0
 10
-27.2629
 20
29.2651
 11
-27.2438
 21
28.8998
  0
LINE
  8
0
 10
-27.2438
 20
28.8998
 11
-27.301
 21
28.5385
  0
LINE
  8
0
 10
-27.301
 20
28.5385
 11
-27.4321
 21
28.1969
  0
LINE
  8
0
 10
-27.4321
 20
28.1969
 11
-27.6314
 21
27.8901
  0
LINE
  8
0
 10
-27.6314
 20
27.8901
 11
-27.8901
 21
27.6314
  0
LINE
  8
0
 10
-27.8901
 20
27.6314
 11
-28.1969
 21
27.4321
  0
LINE
  8
0
 10
-28.1969
 20
27.4321
 11
-28.5385
 21
27.301
  0
LINE
  8
0
 10
-28.5385
 20
27.301
 11
-28.8998
 21
27.2438
  0
LINE
  8
0
 10
-28.8998
 20
27.2438
 11
-29.2651
 21
27.2629
  0
LINE
  8
0
 10
28.5385
 20
27.301
 11
28.1969
 21
27.4321
  0
LINE
  8
0
 10
28.1969
 20
27.4321
 11
27.8901
 21
27.6314
  0
LINE
  8
0
 10
27.8901
 20
27.6314
 11
27.6314
 21
27.8901
  0
LINE
  8
0
 10
27.6314
 20
27.8901
 11
27.4321
 21
28.1969
  0
LINE
  8
0
 10
27.4321
 20
28.1969
 11
27.301
 21
28.5385
  0
LINE
  8
0
 10
27.301
 20
28.5385
 11
27.2438
 21
28.8998
  0
LINE
  8
0
 10
27.2438
 20
28.8998
 11
27.2629
 21
29.2651
  0
LINE
  8
0
 10
27.2629
 20
29.2651
 11
27.3576
 21
29.6185
  0
LINE
  8
0
 10
27.3576
 20
29.6185
 11
27.5237
 21
29.9445
  0
LINE
  8
0
 10
27.5237
 20
29.9445
 11
27.7539
 21
30.2288
  0
LINE
  8
0
 10
27.7539
 20
30.2288
 11
28.0383
 21
30.459
  0
LINE
  8
0
 10
28.0383
 20
30.459
 11
28.3642
 21
30.6251
  0
LINE
  8
0
 10
28.3642
 20
30.6251
 11
28.7176
 21
30.7198
  0
LINE
  8
0
 10
28.7176
 20
30.7198
 11
29.0829
 21
30.739
  0
LINE
  8
0
 10
29.0829
 20
30.739
 11
29.4443
 21
30.6817
  0
LINE
  8
0
 10
29.4443
 20
30.6817
 11
29.7859
 21
30.5506
  0
LINE
  8
0
 10
29.7859
 20
30.5506
 11
30.0927
 21
30.3514
  0
LINE
  8
0
 10
30.0927
 20
30.3514
 11
30.3514
 21
30.0927
  0
LINE
  8
0
 10
30.3514
 20
30.0927
 11
30.5506
 21
29.7859
  0
LINE
  8
0
 10
30.5506
 20
29.7859
 11
30.6817
 21
29.4443
  0
LINE
  8
0
 10
30.6817
 20
29.4443
 11
30.739
 21
29.0829
  0
LINE
  8
0
 10
30.739
 20
29.0829
 11
30.7198
 21
28.7176
  0
LINE
  8
0
 10
30.7198
 20
28.7176
 11
30.6251
 21
28.3642
  0
LINE
  8
0
 10
30.6251
 20
28.3642
 11
30.459
 21
28.0383
  0
LINE
  8
0
 10
30.459
 20
28.0383
 11
30.2288
 21
27.7539
  0
LINE
  8
0
 10
30.2288
 20
27.7539
 11
29.9445
 21
27.5237
  0
LINE
  8
0
 10
29.9445
 20
27.5237
 11
29.6185
 21
27.3576
  0
LINE
  8
0
 10
29.6185
 20
27.3576
 11
29.2651
 21
27.2629
  0
LINE
  8
0
 10
29.2651
 20
27.2629
 11
28.8998
 21
27.2438
  0
LINE
  8
0
 10
28.8998
 20
27.2438
 11
28.5385
 21
27.301
  0
LINE
  8
0
 10
12.9821
 20
22.3513
 11
12.6405
 21
22.4824
  0
LINE
  8
0
 10
12.6405
 20
22.4824
 11
12.3337
 21
22.6816
  0
LINE
  8
0
 10
12.3337
 20
22.6816
 11
12.075
 21
22.9403
  0
LINE
  8
0
 10
12.075
 20
22.9403
 11
11.8758
 21
23.2471
  0
LINE
  8
0
 10
11.8758
 20
23.2471
 11
11.7447
 21
23.5887
  0
LINE
  8
0
 10
11.7447
 20
23.5887
 11
11.6874
 21
23.95
  0
LINE
  8
0
 10
11.6874
 20
23.95
 11
11.7066
 21
24.3154
  0
LINE
  8
0
 10
11.7066
 20
24.3154
 11
11.8013
 21
24.6688
  0
LINE
  8
0
 10
11.8013
 20
24.6688
 11
11.9674
 21
24.9947
  0
LINE
  8
0
 10
11.9674
 20
24.9947
 11
12.1976
 21
25.2791
  0
LINE
  8
0
 10
12.1976
 20
25.2791
 11
12.4819
 21
25.5093
  0
LINE
  8
0
 10
12.4819
 20
25.5093
 11
12.8079
 21
25.6754
  0
LINE
  8
0
 10
12.8079
 20
25.6754
 11
13.1613
 21
25.7701
  0
LINE
  8
0
 10
13.1613
 20
25.7701
 11
13.5266
 21
25.7892
  0
LINE
  8
0
 10
13.5266
 20
25.7892
 11
13.888
 21
25.732
  0
LINE
  8
0
 10
13.888
 20
25.732
 11
14.2295
 21
25.6009
  0
LINE
  8
0
 10
14.2295
 20
25.6009
 11
14.5363
 21
25.4016
  0
LINE
  8
0
 10
14.5363
 20
25.4016
 11
14.795
 21
25.1429
  0
LINE
  8
0
 10
14.795
 20
25.1429
 11
14.9943
 21
24.8361
  0
LINE
  8
0
 10
14.9943
 20
24.8361
 11
15.1254
 21
24.4946
  0
LINE
  8
0
 10
15.1254
 20
24.4946
 11
15.1826
 21
24.1332
  0
LINE
  8
0
 10
15.1826
 20
24.1332
 11
15.1635
 21
23.7679
  0
LINE
  8
0
 10
15.1635
 20
23.7679
 11
15.0688
 21
23.4145
  0
LINE
  8
0
 10
15.0688
 20
23.4145
 11
14.9027
 21
23.0885
  0
LINE
  8
0
 10
14.9027
 20
23.0885
 11
14.6725
 21
22.8042
  0
LINE
  8
0
 10
14.6725
 20
22.8042
 11
14.3882
 21
22.574
  0
LINE
  8
0
 10
14.3882
 20
22.574
 11
14.0622
 21
22.4079
  0
LINE
  8
0
 10
14.0622
 20
22.4079
 11
13.7088
 21
22.3132
  0
LINE
  8
0
 10
13.7088
 20
22.3132
 11
13.3434
 21
22.294
  0
LINE
  8
0
 10
13.3434
 20
22.294
 11
12.9821
 21
22.3513
  0
LINE
  8
0
 10
-13.7088
 20
22.3132
 11
-14.0622
 21
22.4079
  0
LINE
  8
0
 10
-14.0622
 20
22.4079
 11
-14.3882
 21
22.574
  0
LINE
  8
0
 10
-14.3882
 20
22.574
 11
-14.6725
 21
22.8042
  0
LINE
  8
0
 10
-14.6725
 20
22.8042
 11
-14.9027
 21
23.0885
  0
LINE
  8
0
 10
-14.9027
 20
23.0885
 11
-15.0688
 21
23.4145
  0
LINE
  8
0
 10
-15.0688
 20
23.4145
 11
-15.1635
 21
23.7679
  0
LINE
  8
0
 10
-15.1635
 20
23.7679
 11
-15.1826
 21
24.1332
  0
LINE
  8
0
 10
-15.1826
 20
24.1332
 11
-15.1254
 21
24.4946
  0
LINE
  8
0
 10
-15.1254
 20
24.4946
 11
-14.9943
 21
24.8361
  0
LINE
  8
0
 10
-14.9943
 20
24.8361
 11
-14.795
 21
25.1429
  0
LINE
  8
0
 10
-14.795
 20
25.1429
 11
-14.5363
 21
25.4016
  0
LINE
  8
0
 10
-14.5363
 20
25.4016
 11
-14.2295
 21
25.6009
  0
LINE
  8
0
 10
-14.2295
 20
25.6009
 11
-13.888
 21
25.732
  0
LINE
  8
0
 10
-13.888
 20
25.732
 11
-13.5266
 21
25.7892
  0
LINE
  8
0
 10
-13.5266
 20
25.7892
 11
-13.1613
 21
25.7701
  0
LINE
  8
0
 10
-13.1613
 20
25.7701
 11
-12.8079
 21
25.6754
  0
LINE
  8
0
 10
-12.8079
 20
25.6754
 11
-12.4819
 21
25.5093
  0
LINE
  8
0
 10
-12.4819
 20
25.5093
 11
-12.1976
 21
25.2791
  0
LINE
  8
0
 10
-12.1976
 20
25.2791
 11
-11.9674
 21
24.9947
  0
LINE
  8
0
 10
-11.9674
 20
24.9947
 11
-11.8013
 21
24.6688
  0
LINE
  8
0
 10
-11.8013
 20
24.6688
 11
-11.7066
 21
24.3154
  0
LINE
  8
0
 10
-11.7066
 20
24.3154
 11
-11.6874
 21
23.95
  0
LINE
  8
0
 10
-11.6874
 20
23.95
 11
-11.7447
 21
23.5887
  0
LINE
  8
0
 10
-11.7447
 20
23.5887
 11
-11.8758
 21
23.2471
  0
LINE
  8
0
 10
-11.8758
 20
23.2471
 11
-12.075
 21
22.9403
  0
LINE
  8
0
 10
-12.075
 20
22.9403
 11
-12.3337
 21
22.6816
  0
LINE
  8
0
 10
-12.3337
 20
22.6816
 11
-12.6405
 21
22.4824
  0
LINE
  8
0
 10
-12.6405
 20
22.4824
 11
-12.9821
 21
22.3513
  0
LINE
  8
0
 10
-12.9821
 20
22.3513
 11
-13.3434
 21
22.294
  0
LINE
  8
0
 10
-13.3434
 20
22.294
 11
-13.7088
 21
22.3132
  0
LINE
  8
0
 10
22.3171
 20
20.7596
 11
21.9592
 21
20.8356
  0
LINE
  8
0
 10
21.9592
 20
20.8356
 11
21.625
 21
20.9845
  0
LINE
  8
0
 10
21.625
 20
20.9845
 11
21.329
 21
21.1995
  0
LINE
  8
0
 10
21.329
 20
21.1995
 11
21.0842
 21
21.4714
  0
LINE
  8
0
 10
21.0842
 20
21.4714
 11
20.9013
 21
21.7882
  0
LINE
  8
0
 10
20.9013
 20
21.7882
 11
20.7882
 21
22.1362
  0
LINE
  8
0
 10
20.7882
 20
22.1362
 11
20.75
 21
22.5
  0
LINE
  8
0
 10
20.75
 20
22.5
 11
20.7882
 21
22.8638
  0
LINE
  8
0
 10
20.7882
 20
22.8638
 11
20.9013
 21
23.2118
  0
LINE
  8
0
 10
20.9013
 20
23.2118
 11
21.0842
 21
23.5286
  0
LINE
  8
0
 10
21.0842
 20
23.5286
 11
21.329
 21
23.8005
  0
LINE
  8
0
 10
21.329
 20
23.8005
 11
21.625
 21
24.0155
  0
LINE
  8
0
 10
21.625
 20
24.0155
 11
21.9592
 21
24.1643
  0
LINE
  8
0
 10
21.9592
 20
24.1643
 11
22.3171
 21
24.2404
  0
LINE
  8
0
 10
22.3171
 20
24.2404
 11
22.6829
 21
24.2404
  0
LINE
  8
0
 10
22.6829
 20
24.2404
 11
23.0408
 21
24.1643
  0
LINE
  8
0
 10
23.0408
 20
24.1643
 11
23.375
 21
24.0155
  0
LINE
  8
0
 10
23.375
 20
24.0155
 11
23.671
 21
23.8005
  0
LINE
  8
0
 10
23.671
 20
23.8005
 11
23.9158
 21
23.5286
  0
LINE
  8
0
 10
23.9158
 20
23.5286
 11
24.0987
 21
23.2118
  0
LINE
  8
0
 10
24.0987
 20
23.2118
 11
24.2117
 21
22.8638
  0
LINE
  8
0
 10
24.2117
 20
22.8638
 11
24.25
 21
22.5
  0
LINE
  8
0
 10
24.25
 20
22.5
 11
24.2117
 21
22.1362
  0
LINE
  8
0
 10
24.2117
 20
22.1362
 11
24.0987
 21
21.7882
  0
LINE
  8
0
 10
24.0987
 20
21.7882
 11
23.9158
 21
21.4714
  0
LINE
  8
0
 10
23.9158
 20
21.4714
 11
23.671
 21
21.1995
  0
LINE
  8
0
 10
23.671
 20
21.1995
 11
23.375
 21
20.9845
  0
LINE
  8
0
 10
23.375
 20
20.9845
 11
23.0408
 21
20.8356
  0
LINE
  8
0
 10
23.0408
 20
20.8356
 11
22.6829
 21
20.7596
  0
LINE
  8
0
 10
22.6829
 20
20.7596
 11
22.3171
 21
20.7596
  0
LINE
  8
0
 10
-22.6829
 20
20.7596
 11
-23.0408
 21
20.8356
  0
LINE
  8
0
 10
-23.0408
 20
20.8356
 11
-23.375
 21
20.9845
  0
LINE
  8
0
 10
-23.375
 20
20.9845
 11
-23.671
 21
21.1995
  0
LINE
  8
0
 10
-23.671
 20
21.1995
 11
-23.9158
 21
21.4714
  0
LINE
  8
0
 10
-23.9158
 20
21.4714
 11
-24.0987
 21
21.7882
  0
LINE
  8
0
 10
-24.0987
 20
21.7882
 11
-24.2117
 21
22.1362
  0
LINE
  8
0
 10
-24.2117
 20
22.1362
 11
-24.25
 21
22.5
  0
LINE
  8
0
 10
-24.25
 20
22.5
 11
-24.2117
 21
22.8638
  0
LINE
  8
0
 10
-24.2117
 20
22.8638
 11
-24.0987
 21
23.2118
  0
LINE
  8
0
 10
-24.0987
 20
23.2118
 11
-23.9158
 21
23.5286
  0
LINE
  8
0
 10
-23.9158
 20
23.5286
 11
-23.671
 21
23.8005
  0
LINE
  8
0
 10
-23.671
 20
23.8005
 11
-23.375
 21
24.0155
  0
LINE
  8
0
 10
-23.375
 20
24.0155
 11
-23.0408
 21
24.1643
  0
LINE
  8
0
 10
-23.0408
 20
24.1643
 11
-22.6829
 21
24.2404
  0
LINE
  8
0
 10
-22.6829
 20
24.2404
 11
-22.3171
 21
24.2404
  0
LINE
  8
0
 10
-22.3171
 20
24.2404
 11
-21.9592
 21
24.1643
  0
LINE
  8
0
 10
-21.9592
 20
24.1643
 11
-21.625
 21
24.0155
  0
LINE
  8
0
 10
-21.625
 20
24.0155
 11
-21.329
 21
23.8005
  0
LINE
  8
0
 10
-21.329
 20
23.8005
 11
-21.0842
 21
23.5286
  0
LINE
  8
0
 10
-21.0842
 20
23.5286
 11
-20.9013
 21
23.2118
  0
LINE
  8
0
 10
-20.9013
 20
23.2118
 11
-20.7882
 21
22.8638
  0
LINE
  8
0
 10
-20.7882
 20
22.8638
 11
-20.75
 21
22.5
  0
LINE
  8
0
 10
-20.75
 20
22.5
 11
-20.7882
 21
22.1362
  0
LINE
  8
0
 10
-20.7882
 20
22.1362
 11
-20.9013
 21
21.7882
  0
LINE
  8
0
 10
-20.9013
 20
21.7882
 11
-21.0842
 21
21.4714
  0
LINE
  8
0
 10
-21.0842
 20
21.4714
 11
-21.329
 21
21.1995
  0
LINE
  8
0
 10
-21.329
 20
21.1995
 11
-21.625
 21
20.9845
  0
LINE
  8
0
 10
-21.625
 20
20.9845
 11
-21.9592
 21
20.8356
  0
LINE
  8
0
 10
-21.9592
 20
20.8356
 11
-22.3171
 21
20.7596
  0
LINE
  8
0
 10
-22.3171
 20
20.7596
 11
-22.6829
 21
20.7596
  0
LINE
  8
0
 10
-4.91724
 20
12.0838
 11
-5.24442
 21
12.1533
  0
LINE
  8
0
 10
-5.24442
 20
12.1533
 11
-5.54999
 21
12.2894
  0
LINE
  8
0
 10
-5.54999
 20
12.2894
 11
-5.8206
 21
12.486
  0
LINE
  8
0
 10
-5.8206
 20
12.486
 11
-6.04442
 21
12.7346
  0
LINE
  8
0
 10
-6.04442
 20
12.7346
 11
-6.21167
 21
13.0242
  0
LINE
  8
0
 10
-6.21167
 20
13.0242
 11
-6.31503
 21
13.3423
  0
LINE
  8
0
 10
-6.31503
 20
13.3423
 11
-6.34999
 21
13.675
  0
LINE
  8
0
 10
-6.34999
 20
13.675
 11
-6.34999
 21
16.825
  0
LINE
  8
0
 10
-6.34999
 20
16.825
 11
-6.31503
 21
17.1577
  0
LINE
  8
0
 10
-6.31503
 20
17.1577
 11
-6.21167
 21
17.4758
  0
LINE
  8
0
 10
-6.21167
 20
17.4758
 11
-6.04442
 21
17.7654
  0
LINE
  8
0
 10
-6.04442
 20
17.7654
 11
-5.8206
 21
18.014
  0
LINE
  8
0
 10
-5.8206
 20
18.014
 11
-5.54999
 21
18.2106
  0
LINE
  8
0
 10
-5.54999
 20
18.2106
 11
-5.24442
 21
18.3467
  0
LINE
  8
0
 10
-5.24442
 20
18.3467
 11
-4.91724
 21
18.4162
  0
LINE
  8
0
 10
-4.91724
 20
18.4162
 11
4.91724
 21
18.4162
  0
LINE
  8
0
 10
4.91724
 20
18.4162
 11
5.24442
 21
18.3467
  0
LINE
  8
0
 10
5.24442
 20
18.3467
 11
5.54999
 21
18.2106
  0
LINE
  8
0
 10
5.54999
 20
18.2106
 11
5.8206
 21
18.014
  0
LINE
  8
0
 10
5.8206
 20
18.014
 11
6.04442
 21
17.7654
  0
LINE
  8
0
 10
6.04442
 20
17.7654
 11
6.21167
 21
17.4758
  0
LINE
  8
0
 10
6.21167
 20
17.4758
 11
6.31503
 21
17.1577
  0
LINE
  8
0
 10
6.31503
 20
17.1577
 11
6.34999
 21
16.825
  0
LINE
  8
0
 10
6.34999
 20
16.825
 11
6.34999
 21
13.675
  0
LINE
  8
0
 10
6.34999
 20
13.675
 11
6.31503
 21
13.3423
  0
LINE
  8
0
 10
6.31503
 20
13.3423
 11
6.21167
 21
13.0242
  0
LINE
  8
0
 10
6.21167
 20
13.0242
 11
6.04442
 21
12.7346
  0
LINE
  8
0
 10
6.04442
 20
12.7346
 11
5.8206
 21
12.486
  0
LINE
  8
0
 10
5.8206
 20
12.486
 11
5.54999
 21
12.2894
  0
LINE
  8
0
 10
5.54999
 20
12.2894
 11
5.24442
 21
12.1533
  0
LINE
  8
0
 10
5.24442
 20
12.1533
 11
4.91724
 21
12.0838
  0
LINE
  8
0
 10
4.91724
 20
12.0838
 11
-4.91724
 21
12.0838
  0
LINE
  8
0
 10
15.0671
 20
13.5096
 11
14.7092
 21
13.5856
  0
LINE
  8
0
 10
14.7092
 20
13.5856
 11
14.375
 21
13.7345
  0
LINE
  8
0
 10
14.375
 20
13.7345
 11
14.079
 21
13.9495
  0
LINE
  8
0
 10
14.079
 20
13.9495
 11
13.8342
 21
14.2214
  0
LINE
  8
0
 10
13.8342
 20
14.2214
 11
13.6513
 21
14.5382
  0
LINE
  8
0
 10
13.6513
 20
14.5382
 11
13.5382
 21
14.8862
  0
LINE
  8
0
 10
13.5382
 20
14.8862
 11
13.5
 21
15.25
  0
LINE
  8
0
 10
13.5
 20
15.25
 11
13.5382
 21
15.6138
  0
LINE
  8
0
 10
13.5382
 20
15.6138
 11
13.6513
 21
15.9618
  0
LINE
  8
0
 10
13.6513
 20
15.9618
 11
13.8342
 21
16.2786
  0
LINE
  8
0
 10
13.8342
 20
16.2786
 11
14.079
 21
16.5505
  0
LINE
  8
0
 10
14.079
 20
16.5505
 11
14.375
 21
16.7655
  0
LINE
  8
0
 10
14.375
 20
16.7655
 11
14.7092
 21
16.9143
  0
LINE
  8
0
 10
14.7092
 20
16.9143
 11
15.0671
 21
16.9904
  0
LINE
  8
0
 10
15.0671
 20
16.9904
 11
15.4329
 21
16.9904
  0
LINE
  8
0
 10
15.4329
 20
16.9904
 11
15.7908
 21
16.9143
  0
LINE
  8
0
 10
15.7908
 20
16.9143
 11
16.125
 21
16.7655
  0
LINE
  8
0
 10
16.125
 20
16.7655
 11
16.421
 21
16.5505
  0
LINE
  8
0
 10
16.421
 20
16.5505
 11
16.6658
 21
16.2786
  0
LINE
  8
0
 10
16.6658
 20
16.2786
 11
16.8487
 21
15.9618
  0
LINE
  8
0
 10
16.8487
 20
15.9618
 11
16.9617
 21
15.6138
  0
LINE
  8
0
 10
16.9617
 20
15.6138
 11
17
 21
15.25
  0
LINE
  8
0
 10
17
 20
15.25
 11
16.9617
 21
14.8862
  0
LINE
  8
0
 10
16.9617
 20
14.8862
 11
16.8487
 21
14.5382
  0
LINE
  8
0
 10
16.8487
 20
14.5382
 11
16.6658
 21
14.2214
  0
LINE
  8
0
 10
16.6658
 20
14.2214
 11
16.421
 21
13.9495
  0
LINE
  8
0
 10
16.421
 20
13.9495
 11
16.125
 21
13.7345
  0
LINE
  8
0
 10
16.125
 20
13.7345
 11
15.7908
 21
13.5856
  0
LINE
  8
0
 10
15.7908
 20
13.5856
 11
15.4329
 21
13.5096
  0
LINE
  8
0
 10
15.4329
 20
13.5096
 11
15.0671
 21
13.5096
  0
LINE
  8
0
 10
-15.4329
 20
13.5096
 11
-15.7908
 21
13.5856
  0
LINE
  8
0
 10
-15.7908
 20
13.5856
 11
-16.125
 21
13.7345
  0
LINE
  8
0
 10
-16.125
 20
13.7345
 11
-16.421
 21
13.9495
  0
LINE
  8
0
 10
-16.421
 20
13.9495
 11
-16.6658
 21
14.2214
  0
LINE
  8
0
 10
-16.6658
 20
14.2214
 11
-16.8487
 21
14.5382
  0
LINE
  8
0
 10
-16.8487
 20
14.5382
 11
-16.9617
 21
14.8862
  0
LINE
  8
0
 10
-16.9617
 20
14.8862
 11
-17
 21
15.25
  0
LINE
  8
0
 10
-17
 20
15.25
 11
-16.9617
 21
15.6138
  0
LINE
  8
0
 10
-16.9617
 20
15.6138
 11
-16.8487
 21
15.9618
  0
LINE
  8
0
 10
-16.8487
 20
15.9618
 11
-16.6658
 21
16.2786
  0
LINE
  8
0
 10
-16.6658
 20
16.2786
 11
-16.421
 21
16.5505
  0
LINE
  8
0
 10
-16.421
 20
16.5505
 11
-16.125
 21
16.7655
  0
LINE
  8
0
 10
-16.125
 20
16.7655
 11
-15.7908
 21
16.9143
  0
LINE
  8
0
 10
-15.7908
 20
16.9143
 11
-15.4329
 21
16.9904
  0
LINE
  8
0
 10
-15.4329
 20
16.9904
 11
-15.0671
 21
16.9904
  0
LINE
  8
0
 10
-15.0671
 20
16.9904
 11
-14.7092
 21
16.9143
  0
LINE
  8
0
 10
-14.7092
 20
16.9143
 11
-14.375
 21
16.7655
  0
LINE
  8
0
 10
-14.375
 20
16.7655
 11
-14.079
 21
16.5505
  0
LINE
  8
0
 10
-14.079
 20
16.5505
 11
-13.8342
 21
16.2786
  0
LINE
  8
0
 10
-13.8342
 20
16.2786
 11
-13.6513
 21
15.9618
  0
LINE
  8
0
 10
-13.6513
 20
15.9618
 11
-13.5382
 21
15.6138
  0
LINE
  8
0
 10
-13.5382
 20
15.6138
 11
-13.5
 21
15.25
  0
LINE
  8
0
 10
-13.5
 20
15.25
 11
-13.5382
 21
14.8862
  0
LINE
  8
0
 10
-13.5382
 20
14.8862
 11
-13.6513
 21
14.5382
  0
LINE
  8
0
 10
-13.6513
 20
14.5382
 11
-13.8342
 21
14.2214
  0
LINE
  8
0
 10
-13.8342
 20
14.2214
 11
-14.079
 21
13.9495
  0
LINE
  8
0
 10
-14.079
 20
13.9495
 11
-14.375
 21
13.7345
  0
LINE
  8
0
 10
-14.375
 20
13.7345
 11
-14.7092
 21
13.5856
  0
LINE
  8
0
 10
-14.7092
 20
13.5856
 11
-15.0671
 21
13.5096
  0
LINE
  8
0
 10
-15.0671
 20
13.5096
 11
-15.4329
 21
13.5096
  0
LINE
  8
0
 10
23.5887
 20
11.7447
 11
23.2471
 21
11.8758
  0
LINE
  8
0
 10
23.2471
 20
11.8758
 11
22.9403
 21
12.075
  0
LINE
  8
0
 10
22.9403
 20
12.075
 11
22.6816
 21
12.3337
  0
LINE
  8
0
 10
22.6816
 20
12.3337
 11
22.4824
 21
12.6405
  0
LINE
  8
0
 10
22.4824
 20
12.6405
 11
22.3513
 21
12.9821
  0
LINE
  8
0
 10
22.3513
 20
12.9821
 11
22.294
 21
13.3434
  0
LINE
  8
0
 10
22.294
 20
13.3434
 11
22.3132
 21
13.7088
  0
LINE
  8
0
 10
22.3132
 20
13.7088
 11
22.4079
 21
14.0622
  0
LINE
  8
0
 10
22.4079
 20
14.0622
 11
22.574
 21
14.3882
  0
LINE
  8
0
 10
22.574
 20
14.3882
 11
22.8042
 21
14.6725
  0
LINE
  8
0
 10
22.8042
 20
14.6725
 11
23.0885
 21
14.9027
  0
LINE
  8
0
 10
23.0885
 20
14.9027
 11
23.4145
 21
15.0688
  0
LINE
  8
0
 10
23.4145
 20
15.0688
 11
23.7679
 21
15.1635
  0
LINE
  8
0
 10
23.7679
 20
15.1635
 11
24.1332
 21
15.1826
  0
LINE
  8
0
 10
24.1332
 20
15.1826
 11
24.4946
 21
15.1254
  0
LINE
  8
0
 10
24.4946
 20
15.1254
 11
24.8361
 21
14.9943
  0
LINE
  8
0
 10
24.8361
 20
14.9943
 11
25.1429
 21
14.795
  0
LINE
  8
0
 10
25.1429
 20
14.795
 11
25.4016
 21
14.5363
  0
LINE
  8
0
 10
25.4016
 20
14.5363
 11
25.6009
 21
14.2295
  0
LINE
  8
0
 10
25.6009
 20
14.2295
 11
25.732
 21
13.888
  0
LINE
  8
0
 10
25.732
 20
13.888
 11
25.7892
 21
13.5266
  0
LINE
  8
0
 10
25.7892
 20
13.5266
 11
25.7701
 21
13.1613
  0
LINE
  8
0
 10
25.7701
 20
13.1613
 11
25.6754
 21
12.8079
  0
LINE
  8
0
 10
25.6754
 20
12.8079
 11
25.5093
 21
12.4819
  0
LINE
  8
0
 10
25.5093
 20
12.4819
 11
25.2791
 21
12.1976
  0
LINE
  8
0
 10
25.2791
 20
12.1976
 11
24.9947
 21
11.9674
  0
LINE
  8
0
 10
24.9947
 20
11.9674
 11
24.6688
 21
11.8013
  0
LINE
  8
0
 10
24.6688
 20
11.8013
 11
24.3154
 21
11.7066
  0
LINE
  8
0
 10
24.3154
 20
11.7066
 11
23.95
 21
11.6874
  0
LINE
  8
0
 10
23.95
 20
11.6874
 11
23.5887
 21
11.7447
  0
LINE
  8
0
 10
-24.3154
 20
11.7066
 11
-24.6688
 21
11.8013
  0
LINE
  8
0
 10
-24.6688
 20
11.8013
 11
-24.9947
 21
11.9674
  0
LINE
  8
0
 10
-24.9947
 20
11.9674
 11
-25.2791
 21
12.1976
  0
LINE
  8
0
 10
-25.2791
 20
12.1976
 11
-25.5093
 21
12.4819
  0
LINE
  8
0
 10
-25.5093
 20
12.4819
 11
-25.6754
 21
12.8079
  0
LINE
  8
0
 10
-25.6754
 20
12.8079
 11
-25.7701
 21
13.1613
  0
LINE
  8
0
 10
-25.7701
 20
13.1613
 11
-25.7892
 21
13.5266
  0
LINE
  8
0
 10
-25.7892
 20
13.5266
 11
-25.732
 21
13.888
  0
LINE
  8
0
 10
-25.732
 20
13.888
 11
-25.6009
 21
14.2295
  0
LINE
  8
0
 10
-25.6009
 20
14.2295
 11
-25.4016
 21
14.5363
  0
LINE
  8
0
 10
-25.4016
 20
14.5363
 11
-25.1429
 21
14.795
  0
LINE
  8
0
 10
-25.1429
 20
14.795
 11
-24.8361
 21
14.9943
  0
LINE
  8
0
 10
-24.8361
 20
14.9943
 11
-24.4946
 21
15.1254
  0
LINE
  8
0
 10
-24.4946
 20
15.1254
 11
-24.1332
 21
15.1826
  0
LINE
  8
0
 10
-24.1332
 20
15.1826
 11
-23.7679
 21
15.1635
  0
LINE
  8
0
 10
-23.7679
 20
15.1635
 11
-23.4145
 21
15.0688
  0
LINE
  8
0
 10
-23.4145
 20
15.0688
 11
-23.0885
 21
14.9027
  0
LINE
  8
0
 10
-23.0885
 20
14.9027
 11
-22.8042
 21
14.6725
  0
LINE
  8
0
 10
-22.8042
 20
14.6725
 11
-22.574
 21
14.3882
  0
LINE
  8
0
 10
-22.574
 20
14.3882
 11
-22.4079
 21
14.0622
  0
LINE
  8
0
 10
-22.4079
 20
14.0622
 11
-22.3132
 21
13.7088
  0
LINE
  8
0
 10
-22.3132
 20
13.7088
 11
-22.294
 21
13.3434
  0
LINE
  8
0
 10
-22.294
 20
13.3434
 11
-22.3513
 21
12.9821
  0
LINE
  8
0
 10
-22.3513
 20
12.9821
 11
-22.4824
 21
12.6405
  0
LINE
  8
0
 10
-22.4824
 20
12.6405
 11
-22.6816
 21
12.3337
  0
LINE
  8
0
 10
-22.6816
 20
12.3337
 11
-22.9403
 21
12.075
  0
LINE
  8
0
 10
-22.9403
 20
12.075
 11
-23.2471
 21
11.8758
  0
LINE
  8
0
 10
-23.2471
 20
11.8758
 11
-23.5887
 21
11.7447
  0
LINE
  8
0
 10
-23.5887
 20
11.7447
 11
-23.95
 21
11.6874
  0
LINE
  8
0
 10
-23.95
 20
11.6874
 11
-24.3154
 21
11.7066
  0
LINE
  8
0
 10
-26.1568
 20
-9.99178
 11
-26.4635
 21
-9.92657
  0
LINE
  8
0
 10
-26.4635
 20
-9.92657
 11
-26.75
 21
-9.79903
  0
LINE
  8
0
 10
-26.75
 20
-9.79903
 11
-27.0037
 21
-9.61472
  0
LINE
  8
0
 10
-27.0037
 20
-9.61472
 11
-27.2135
 21
-9.38167
  0
LINE
  8
0
 10
-27.2135
 20
-9.38167
 11
-27.3703
 21
-9.11009
  0
LINE
  8
0
 10
-27.3703
 20
-9.11009
 11
-27.4672
 21
-8.81186
  0
LINE
  8
0
 10
-27.4672
 20
-8.81186
 11
-27.5
 21
-8.5
  0
LINE
  8
0
 10
-27.5
 20
-8.5
 11
-27.5
 21
8.5
  0
LINE
  8
0
 10
-27.5
 20
8.5
 11
-27.4672
 21
8.81186
  0
LINE
  8
0
 10
-27.4672
 20
8.81186
 11
-27.3703
 21
9.11009
  0
LINE
  8
0
 10
-27.3703
 20
9.11009
 11
-27.2135
 21
9.38167
  0
LINE
  8
0
 10
-27.2135
 20
9.38167
 11
-27.0037
 21
9.61472
  0
LINE
  8
0
 10
-27.0037
 20
9.61472
 11
-26.75
 21
9.79903
  0
LINE
  8
0
 10
-26.75
 20
9.79903
 11
-26.4635
 21
9.92657
  0
LINE
  8
0
 10
-26.4635
 20
9.92657
 11
-26.1568
 21
9.99178
  0
LINE
  8
0
 10
-26.1568
 20
9.99178
 11
-25.8432
 21
9.99178
  0
LINE
  8
0
 10
-25.8432
 20
9.99178
 11
-25.5365
 21
9.92657
  0
LINE
  8
0
 10
-25.5365
 20
9.92657
 11
-25.25
 21
9.79903
  0
LINE
  8
0
 10
-25.25
 20
9.79903
 11
-24.9963
 21
9.61472
  0
LINE
  8
0
 10
-24.9963
 20
9.61472
 11
-24.7865
 21
9.38167
  0
LINE
  8
0
 10
-24.7865
 20
9.38167
 11
-24.6297
 21
9.11009
  0
LINE
  8
0
 10
-24.6297
 20
9.11009
 11
-24.5328
 21
8.81186
  0
LINE
  8
0
 10
-24.5328
 20
8.81186
 11
-24.5
 21
8.5
  0
LINE
  8
0
 10
-24.5
 20
8.5
 11
-24.5
 21
-8.5
  0
LINE
  8
0
 10
-24.5
 20
-8.5
 11
-24.5328
 21
-8.81186
  0
LINE
  8
0
 10
-24.5328
 20
-8.81186
 11
-24.6297
 21
-9.11009
  0
LINE
  8
0
 10
-24.6297
 20
-9.11009
 11
-24.7865
 21
-9.38167
  0
LINE
  8
0
 10
-24.7865
 20
-9.38167
 11
-24.9963
 21
-9.61472
  0
LINE
  8
0
 10
-24.9963
 20
-9.61472
 11
-25.25
 21
-9.79903
  0
LINE
  8
0
 10
-25.25
 20
-9.79903
 11
-25.5365
 21
-9.92657
  0
LINE
  8
0
 10
-25.5365
 20
-9.92657
 11
-25.8432
 21
-9.99178
  0
LINE
  8
0
 10
-25.8432
 20
-9.99178
 11
-26.1568
 21
-9.99178
  0
LINE
  8
0
 10
25.8432
 20
-9.99178
 11
25.5365
 21
-9.92657
  0
LINE
  8
0
 10
25.5365
 20
-9.92657
 11
25.25
 21
-9.79903
  0
LINE
  8
0
 10
25.25
 20
-9.79903
 11
24.9963
 21
-9.61472
  0
LINE
  8
0
 10
24.9963
 20
-9.61472
 11
24.7865
 21
-9.38167
  0
LINE
  8
0
 10
24.7865
 20
-9.38167
 11
24.6297
 21
-9.11009
  0
LINE
  8
0
 10
24.6297
 20
-9.11009
 11
24.5328
 21
-8.81186
  0
LINE
  8
0
 10
24.5328
 20
-8.81186
 11
24.5
 21
-8.5
  0
LINE
  8
0
 10
24.5
 20
-8.5
 11
24.5
 21
8.5
  0
LINE
  8
0
 10
24.5
 20
8.5
 11
24.5328
 21
8.81186
  0
LINE
  8
0
 10
24.5328
 20
8.81186
 11
24.6297
 21
9.11009
  0
LINE
  8
0
 10
24.6297
 20
9.11009
 11
24.7865
 21
9.38167
  0
LINE
  8
0
 10
24.7865
 20
9.38167
 11
24.9963
 21
9.61472
  0
LINE
  8
0
 10
24.9963
 20
9.61472
 11
25.25
 21
9.79903
  0
LINE
  8
0
 10
25.25
 20
9.79903
 11
25.5365
 21
9.92657
  0
LINE
  8
0
 10
25.5365
 20
9.92657
 11
25.8432
 21
9.99178
  0
LINE
  8
0
 10
25.8432
 20
9.99178
 11
26.1568
 21
9.99178
  0
LINE
  8
0
 10
26.1568
 20
9.99178
 11
26.4635
 21
9.92657
  0
LINE
  8
0
 10
26.4635
 20
9.92657
 11
26.75
 21
9.79903
  0
LINE
  8
0
 10
26.75
 20
9.79903
 11
27.0037
 21
9.61472
  0
LINE
  8
0
 10
27.0037
 20
9.61472
 11
27.2135
 21
9.38167
  0
LINE
  8
0
 10
27.2135
 20
9.38167
 11
27.3703
 21
9.11009
  0
LINE
  8
0
 10
27.3703
 20
9.11009
 11
27.4672
 21
8.81186
  0
LINE
  8
0
 10
27.4672
 20
8.81186
 11
27.5
 21
8.5
  0
LINE
  8
0
 10
27.5
 20
8.5
 11
27.5
 21
-8.5
  0
LINE
  8
0
 10
27.5
 20
-8.5
 11
27.4672
 21
-8.81186
  0
LINE
  8
0
 10
27.4672
 20
-8.81186
 11
27.3703
 21
-9.11009
  0
LINE
  8
0
 10
27.3703
 20
-9.11009
 11
27.2135
 21
-9.38167
  0
LINE
  8
0
 10
27.2135
 20
-9.38167
 11
27.0037
 21
-9.61472
  0
LINE
  8
0
 10
27.0037
 20
-9.61472
 11
26.75
 21
-9.79903
  0
LINE
  8
0
 10
26.75
 20
-9.79903
 11
26.4635
 21
-9.92657
  0
LINE
  8
0
 10
26.4635
 20
-9.92657
 11
26.1568
 21
-9.99178
  0
LINE
  8
0
 10
26.1568
 20
-9.99178
 11
25.8432
 21
-9.99178
  0
LINE
  8
0
 10
-16.1568
 20
-9.99178
 11
-16.4635
 21
-9.92657
  0
LINE
  8
0
 10
-16.4635
 20
-9.92657
 11
-16.75
 21
-9.79903
  0
LINE
  8
0
 10
-16.75
 20
-9.79903
 11
-17.0037
 21
-9.61472
  0
LINE
  8
0
 10
-17.0037
 20
-9.61472
 11
-17.2135
 21
-9.38167
  0
LINE
  8
0
 10
-17.2135
 20
-9.38167
 11
-17.3703
 21
-9.11009
  0
LINE
  8
0
 10
-17.3703
 20
-9.11009
 11
-17.4672
 21
-8.81186
  0
LINE
  8
0
 10
-17.4672
 20
-8.81186
 11
-17.5
 21
-8.5
  0
LINE
  8
0
 10
-17.5
 20
-8.5
 11
-17.5
 21
8.5
  0
LINE
  8
0
 10
-17.5
 20
8.5
 11
-17.4672
 21
8.81186
  0
LINE
  8
0
 10
-17.4672
 20
8.81186
 11
-17.3703
 21
9.11009
  0
LINE
  8
0
 10
-17.3703
 20
9.11009
 11
-17.2135
 21
9.38167
  0
LINE
  8
0
 10
-17.2135
 20
9.38167
 11
-17.0037
 21
9.61472
  0
LINE
  8
0
 10
-17.0037
 20
9.61472
 11
-16.75
 21
9.79903
  0
LINE
  8
0
 10
-16.75
 20
9.79903
 11
-16.4635
 21
9.92657
  0
LINE
  8
0
 10
-16.4635
 20
9.92657
 11
-16.1568
 21
9.99178
  0
LINE
  8
0
 10
-16.1568
 20
9.99178
 11
-15.8432
 21
9.99178
  0
LINE
  8
0
 10
-15.8432
 20
9.99178
 11
-15.5365
 21
9.92657
  0
LINE
  8
0
 10
-15.5365
 20
9.92657
 11
-15.25
 21
9.79903
  0
LINE
  8
0
 10
-15.25
 20
9.79903
 11
-14.9963
 21
9.61472
  0
LINE
  8
0
 10
-14.9963
 20
9.61472
 11
-14.7865
 21
9.38167
  0
LINE
  8
0
 10
-14.7865
 20
9.38167
 11
-14.6297
 21
9.11009
  0
LINE
  8
0
 10
-14.6297
 20
9.11009
 11
-14.5328
 21
8.81186
  0
LINE
  8
0
 10
-14.5328
 20
8.81186
 11
-14.5
 21
8.5
  0
LINE
  8
0
 10
-14.5
 20
8.5
 11
-14.5
 21
-8.5
  0
LINE
  8
0
 10
-14.5
 20
-8.5
 11
-14.5328
 21
-8.81186
  0
LINE
  8
0
 10
-14.5328
 20
-8.81186
 11
-14.6297
 21
-9.11009
  0
LINE
  8
0
 10
-14.6297
 20
-9.11009
 11
-14.7865
 21
-9.38167
  0
LINE
  8
0
 10
-14.7865
 20
-9.38167
 11
-14.9963
 21
-9.61472
  0
LINE
  8
0
 10
-14.9963
 20
-9.61472
 11
-15.25
 21
-9.79903
  0
LINE
  8
0
 10
-15.25
 20
-9.79903
 11
-15.5365
 21
-9.92657
  0
LINE
  8
0
 10
-15.5365
 20
-9.92657
 11
-15.8432
 21
-9.99178
  0
LINE
  8
0
 10
-15.8432
 20
-9.99178
 11
-16.1568
 21
-9.99178
  0
LINE
  8
0
 10
15.8432
 20
-9.99178
 11
15.5365
 21
-9.92657
  0
LINE
  8
0
 10
15.5365
 20
-9.92657
 11
15.25
 21
-9.79903
  0
LINE
  8
0
 10
15.25
 20
-9.79903
 11
14.9963
 21
-9.61472
  0
LINE
  8
0
 10
14.9963
 20
-9.61472
 11
14.7865
 21
-9.38167
  0
LINE
  8
0
 10
14.7865
 20
-9.38167
 11
14.6297
 21
-9.11009
  0
LINE
  8
0
 10
14.6297
 20
-9.11009
 11
14.5328
 21
-8.81186
  0
LINE
  8
0
 10
14.5328
 20
-8.81186
 11
14.5
 21
-8.5
  0
LINE
  8
0
 10
14.5
 20
-8.5
 11
14.5
 21
8.5
  0
LINE
  8
0
 10
14.5
 20
8.5
 11
14.5328
 21
8.81186
  0
LINE
  8
0
 10
14.5328
 20
8.81186
 11
14.6297
 21
9.11009
  0
LINE
  8
0
 10
14.6297
 20
9.11009
 11
14.7865
 21
9.38167
  0
LINE
  8
0
 10
14.7865
 20
9.38167
 11
14.9963
 21
9.61472
  0
LINE
  8
0
 10
14.9963
 20
9.61472
 11
15.25
 21
9.79903
  0
LINE
  8
0
 10
15.25
 20
9.79903
 11
15.5365
 21
9.92657
  0
LINE
  8
0
 10
15.5365
 20
9.92657
 11
15.8432
 21
9.99178
  0
LINE
  8
0
 10
15.8432
 20
9.99178
 11
16.1568
 21
9.99178
  0
LINE
  8
0
 10
16.1568
 20
9.99178
 11
16.4635
 21
9.92657
  0
LINE
  8
0
 10
16.4635
 20
9.92657
 11
16.75
 21
9.79903
  0
LINE
  8
0
 10
16.75
 20
9.79903
 11
17.0037
 21
9.61472
  0
LINE
  8
0
 10
17.0037
 20
9.61472
 11
17.2135
 21
9.38167
  0
LINE
  8
0
 10
17.2135
 20
9.38167
 11
17.3703
 21
9.11009
  0
LINE
  8
0
 10
17.3703
 20
9.11009
 11
17.4672
 21
8.81186
  0
LINE
  8
0
 10
17.4672
 20
8.81186
 11
17.5
 21
8.5
  0
LINE
  8
0
 10
17.5
 20
8.5
 11
17.5
 21
-8.5
  0
LINE
  8
0
 10
17.5
 20
-8.5
 11
17.4672
 21
-8.81186
  0
LINE
  8
0
 10
17.4672
 20
-8.81186
 11
17.3703
 21
-9.11009
  0
LINE
  8
0
 10
17.3703
 20
-9.11009
 11
17.2135
 21
-9.38167
  0
LINE
  8
0
 10
17.2135
 20
-9.38167
 11
17.0037
 21
-9.61472
  0
LINE
  8
0
 10
17.0037
 20
-9.61472
 11
16.75
 21
-9.79903
  0
LINE
  8
0
 10
16.75
 20
-9.79903
 11
16.4635
 21
-9.92657
  0
LINE
  8
0
 10
16.4635
 20
-9.92657
 11
16.1568
 21
-9.99178
  0
LINE
  8
0
 10
16.1568
 20
-9.99178
 11
15.8432
 21
-9.99178
  0
LINE
  8
0
 10
-24.4946
 20
-15.1254
 11
-24.8361
 21
-14.9943
  0
LINE
  8
0
 10
-24.8361
 20
-14.9943
 11
-25.1429
 21
-14.795
  0
LINE
  8
0
 10
-25.1429
 20
-14.795
 11
-25.4016
 21
-14.5363
  0
LINE
  8
0
 10
-25.4016
 20
-14.5363
 11
-25.6009
 21
-14.2295
  0
LINE
  8
0
 10
-25.6009
 20
-14.2295
 11
-25.732
 21
-13.888
  0
LINE
  8
0
 10
-25.732
 20
-13.888
 11
-25.7892
 21
-13.5266
  0
LINE
  8
0
 10
-25.7892
 20
-13.5266
 11
-25.7701
 21
-13.1613
  0
LINE
  8
0
 10
-25.7701
 20
-13.1613
 11
-25.6754
 21
-12.8079
  0
LINE
  8
0
 10
-25.6754
 20
-12.8079
 11
-25.5093
 21
-12.4819
  0
LINE
  8
0
 10
-25.5093
 20
-12.4819
 11
-25.2791
 21
-12.1976
  0
LINE
  8
0
 10
-25.2791
 20
-12.1976
 11
-24.9947
 21
-11.9674
  0
LINE
  8
0
 10
-24.9947
 20
-11.9674
 11
-24.6688
 21
-11.8013
  0
LINE
  8
0
 10
-24.6688
 20
-11.8013
 11
-24.3154
 21
-11.7066
  0
LINE
  8
0
 10
-24.3154
 20
-11.7066
 11
-23.95
 21
-11.6874
  0
LINE
  8
0
 10
-23.95
 20
-11.6874
 11
-23.5887
 21
-11.7447
  0
LINE
  8
0
 10
-23.5887
 20
-11.7447
 11
-23.2471
 21
-11.8758
  0
LINE
  8
0
 10
-23.2471
 20
-11.8758
 11
-22.9403
 21
-12.075
  0
LINE
  8
0
 10
-22.9403
 20
-12.075
 11
-22.6816
 21
-12.3337
  0
LINE
  8
0
 10
-22.6816
 20
-12.3337
 11
-22.4824
 21
-12.6405
  0
LINE
  8
0
 10
-22.4824
 20
-12.6405
 11
-22.3513
 21
-12.9821
  0
LINE
  8
0
 10
-22.3513
 20
-12.9821
 11
-22.294
 21
-13.3434
  0
LINE
  8
0
 10
-22.294
 20
-13.3434
 11
-22.3132
 21
-13.7088
  0
LINE
  8
0
 10
-22.3132
 20
-13.7088
 11
-22.4079
 21
-14.0622
  0
LINE
  8
0
 10
-22.4079
 20
-14.0622
 11
-22.574
 21
-14.3882
  0
LINE
  8
0
 10
-22.574
 20
-14.3882
 11
-22.8042
 21
-14.6725
  0
LINE
  8
0
 10
-22.8042
 20
-14.6725
 11
-23.0885
 21
-14.9027
  0
LINE
  8
0
 10
-23.0885
 20
-14.9027
 11
-23.4145
 21
-15.0688
  0
LINE
  8
0
 10
-23.4145
 20
-15.0688
 11
-23.7679
 21
-15.1635
  0
LINE
  8
0
 10
-23.7679
 20
-15.1635
 11
-24.1332
 21
-15.1826
  0
LINE
  8
0
 10
-24.1332
 20
-15.1826
 11
-24.4946
 21
-15.1254
  0
LINE
  8
0
 10
23.7679
 20
-15.1635
 11
23.4145
 21
-15.0688
  0
LINE
  8
0
 10
23.4145
 20
-15.0688
 11
23.0885
 21
-14.9027
  0
LINE
  8
0
 10
23.0885
 20
-14.9027
 11
22.8042
 21
-14.6725
  0
LINE
  8
0
 10
22.8042
 20
-14.6725
 11
22.574
 21
-14.3882
  0
LINE
  8
0
 10
22.574
 20
-14.3882
 11
22.4079
 21
-14.0622
  0
LINE
  8
0
 10
22.4079
 20
-14.0622
 11
22.3132
 21
-13.7088
  0
LINE
  8
0
 10
22.3132
 20
-13.7088
 11
22.294
 21
-13.3434
  0
LINE
  8
0
 10
22.294
 20
-13.3434
 11
22.3513
 21
-12.9821
  0
LINE
  8
0
 10
22.3513
 20
-12.9821
 11
22.4824
 21
-12.6405
  0
LINE
  8
0
 10
22.4824
 20
-12.6405
 11
22.6816
 21
-12.3337
  0
LINE
  8
0
 10
22.6816
 20
-12.3337
 11
22.9403
 21
-12.075
  0
LINE
  8
0
 10
22.9403
 20
-12.075
 11
23.2471
 21
-11.8758
  0
LINE
  8
0
 10
23.2471
 20
-11.8758
 11
23.5887
 21
-11.7447
  0
LINE
  8
0
 10
23.5887
 20
-11.7447
 11
23.95
 21
-11.6874
  0
LINE
  8
0
 10
23.95
 20
-11.6874
 11
24.3154
 21
-11.7066
  0
LINE
  8
0
 10
24.3154
 20
-11.7066
 11
24.6688
 21
-11.8013
  0
LINE
  8
0
 10
24.6688
 20
-11.8013
 11
24.9947
 21
-11.9674
  0
LINE
  8
0
 10
24.9947
 20
-11.9674
 11
25.2791
 21
-12.1976
  0
LINE
  8
0
 10
25.2791
 20
-12.1976
 11
25.5093
 21
-12.4819
  0
LINE
  8
0
 10
25.5093
 20
-12.4819
 11
25.6754
 21
-12.8079
  0
LINE
  8
0
 10
25.6754
 20
-12.8079
 11
25.7701
 21
-13.1613
  0
LINE
  8
0
 10
25.7701
 20
-13.1613
 11
25.7892
 21
-13.5266
  0
LINE
  8
0
 10
25.7892
 20
-13.5266
 11
25.732
 21
-13.888
  0
LINE
  8
0
 10
25.732
 20
-13.888
 11
25.6009
 21
-14.2295
  0
LINE
  8
0
 10
25.6009
 20
-14.2295
 11
25.4016
 21
-14.5363
  0
LINE
  8
0
 10
25.4016
 20
-14.5363
 11
25.1429
 21
-14.795
  0
LINE
  8
0
 10
25.1429
 20
-14.795
 11
24.8361
 21
-14.9943
  0
LINE
  8
0
 10
24.8361
 20
-14.9943
 11
24.4946
 21
-15.1254
  0
LINE
  8
0
 10
24.4946
 20
-15.1254
 11
24.1332
 21
-15.1826
  0
LINE
  8
0
 10
24.1332
 20
-15.1826
 11
23.7679
 21
-15.1635
  0
LINE
  8
0
 10
-4.91724
 20
-18.4162
 11
-5.24442
 21
-18.3467
  0
LINE
  8
0
 10
-5.24442
 20
-18.3467
 11
-5.54999
 21
-18.2106
  0
LINE
  8
0
 10
-5.54999
 20
-18.2106
 11
-5.8206
 21
-18.014
  0
LINE
  8
0
 10
-5.8206
 20
-18.014
 11
-6.04442
 21
-17.7654
  0
LINE
  8
0
 10
-6.04442
 20
-17.7654
 11
-6.21167
 21
-17.4758
  0
LINE
  8
0
 10
-6.21167
 20
-17.4758
 11
-6.31503
 21
-17.1577
  0
LINE
  8
0
 10
-6.31503
 20
-17.1577
 11
-6.34999
 21
-16.825
  0
LINE
  8
0
 10
-6.34999
 20
-16.825
 11
-6.34999
 21
-13.675
  0
LINE
  8
0
 10
-6.34999
 20
-13.675
 11
-6.31503
 21
-13.3423
  0
LINE
  8
0
 10
-6.31503
 20
-13.3423
 11
-6.21167
 21
-13.0242
  0
LINE
  8
0
 10
-6.21167
 20
-13.0242
 11
-6.04442
 21
-12.7346
  0
LINE
  8
0
 10
-6.04442
 20
-12.7346
 11
-5.8206
 21
-12.486
  0
LINE
  8
0
 10
-5.8206
 20
-12.486
 11
-5.54999
 21
-12.2894
  0
LINE
  8
0
 10
-5.54999
 20
-12.2894
 11
-5.24442
 21
-12.1533
  0
LINE
  8
0
 10
-5.24442
 20
-12.1533
 11
-4.91724
 21
-12.0838
  0
LINE
  8
0
 10
-4.91724
 20
-12.0838
 11
4.91724
 21
-12.0838
  0
LINE
  8
0
 10
4.91724
 20
-12.0838
 11
5.24442
 21
-12.1533
  0
LINE
  8
0
 10
5.24442
 20
-12.1533
 11
5.54999
 21
-12.2894
  0
LINE
  8
0
 10
5.54999
 20
-12.2894
 11
5.8206
 21
-12.486
  0
LINE
  8
0
 10
5.8206
 20
-12.486
 11
6.04442
 21
-12.7346
  0
LINE
  8
0
 10
6.04442
 20
-12.7346
 11
6.21167
 21
-13.0242
  0
LINE
  8
0
 10
6.21167
 20
-13.0242
 11
6.31503
 21
-13.3423
  0
LINE
  8
0
 10
6.31503
 20
-13.3423
 11
6.34999
 21
-13.675
  0
LINE
  8
0
 10
6.34999
 20
-13.675
 11
6.34999
 21
-16.825
  0
LINE
  8
0
 10
6.34999
 20
-16.825
 11
6.31503
 21
-17.1577
  0
LINE
  8
0
 10
6.31503
 20
-17.1577
 11
6.21167
 21
-17.4758
  0
LINE
  8
0
 10
6.21167
 20
-17.4758
 11
6.04442
 21
-17.7654
  0
LINE
  8
0
 10
6.04442
 20
-17.7654
 11
5.8206
 21
-18.014
  0
LINE
  8
0
 10
5.8206
 20
-18.014
 11
5.54999
 21
-18.2106
  0
LINE
  8
0
 10
5.54999
 20
-18.2106
 11
5.24442
 21
-18.3467
  0
LINE
  8
0
 10
5.24442
 20
-18.3467
 11
4.91724
 21
-18.4162
  0
LINE
  8
0
 10
4.91724
 20
-18.4162
 11
-4.91724
 21
-18.4162
  0
LINE
  8
0
 10
-15.4329
 20
-16.9904
 11
-15.7908
 21
-16.9143
  0
LINE
  8
0
 10
-15.7908
 20
-16.9143
 11
-16.125
 21
-16.7655
  0
LINE
  8
0
 10
-16.125
 20
-16.7655
 11
-16.421
 21
-16.5505
  0
LINE
  8
0
 10
-16.421
 20
-16.5505
 11
-16.6658
 21
-16.2786
  0
LINE
  8
0
 10
-16.6658
 20
-16.2786
 11
-16.8487
 21
-15.9618
  0
LINE
  8
0
 10
-16.8487
 20
-15.9618
 11
-16.9617
 21
-15.6138
  0
LINE
  8
0
 10
-16.9617
 20
-15.6138
 11
-17
 21
-15.25
  0
LINE
  8
0
 10
-17
 20
-15.25
 11
-16.9617
 21
-14.8862
  0
LINE
  8
0
 10
-16.9617
 20
-14.8862
 11
-16.8487
 21
-14.5382
  0
LINE
  8
0
 10
-16.8487
 20
-14.5382
 11
-16.6658
 21
-14.2214
  0
LINE
  8
0
 10
-16.6658
 20
-14.2214
 11
-16.421
 21
-13.9495
  0
LINE
  8
0
 10
-16.421
 20
-13.9495
 11
-16.125
 21
-13.7345
  0
LINE
  8
0
 10
-16.125
 20
-13.7345
 11
-15.7908
 21
-13.5856
  0
LINE
  8
0
 10
-15.7908
 20
-13.5856
 11
-15.4329
 21
-13.5096
  0
LINE
  8
0
 10
-15.4329
 20
-13.5096
 11
-15.0671
 21
-13.5096
  0
LINE
  8
0
 10
-15.0671
 20
-13.5096
 11
-14.7092
 21
-13.5856
  0
LINE
  8
0
 10
-14.7092
 20
-13.5856
 11
-14.375
 21
-13.7345
  0
LINE
  8
0
 10
-14.375
 20
-13.7345
 11
-14.079
 21
-13.9495
  0
LINE
  8
0
 10
-14.079
 20
-13.9495
 11
-13.8342
 21
-14.2214
  0
LINE
  8
0
 10
-13.8342
 20
-14.2214
 11
-13.6513
 21
-14.5382
  0
LINE
  8
0
 10
-13.6513
 20
-14.5382
 11
-13.5382
 21
-14.8862
  0
LINE
  8
0
 10
-13.5382
 20
-14.8862
 11
-13.5
 21
-15.25
  0
LINE
  8
0
 10
-13.5
 20
-15.25
 11
-13.5382
 21
-15.6138
  0
LINE
  8
0
 10
-13.5382
 20
-15.6138
 11
-13.6513
 21
-15.9618
  0
LINE
  8
0
 10
-13.6513
 20
-15.9618
 11
-13.8342
 21
-16.2786
  0
LINE
  8
0
 10
-13.8342
 20
-16.2786
 11
-14.079
 21
-16.5505
  0
LINE
  8
0
 10
-14.079
 20
-16.5505
 11
-14.375
 21
-16.7655
  0
LINE
  8
0
 10
-14.375
 20
-16.7655
 11
-14.7092
 21
-16.9143
  0
LINE
  8
0
 10
-14.7092
 20
-16.9143
 11
-15.0671
 21
-16.9904
  0
LINE
  8
0
 10
-15.0671
 20
-16.9904
 11
-15.4329
 21
-16.9904
  0
LINE
  8
0
 10
15.0671
 20
-16.9904
 11
14.7092
 21
-16.9143
  0
LINE
  8
0
 10
14.7092
 20
-16.9143
 11
14.375
 21
-16.7655
  0
LINE
  8
0
 10
14.375
 20
-16.7655
 11
14.079
 21
-16.5505
  0
LINE
  8
0
 10
14.079
 20
-16.5505
 11
13.8342
 21
-16.2786
  0
LINE
  8
0
 10
13.8342
 20
-16.2786
 11
13.6513
 21
-15.9618
  0
LINE
  8
0
 10
13.6513
 20
-15.9618
 11
13.5382
 21
-15.6138
  0
LINE
  8
0
 10
13.5382
 20
-15.6138
 11
13.5
 21
-15.25
  0
LINE
  8
0
 10
13.5
 20
-15.25
 11
13.5382
 21
-14.8862
  0
LINE
  8
0
 10
13.5382
 20
-14.8862
 11
13.6513
 21
-14.5382
  0
LINE
  8
0
 10
13.6513
 20
-14.5382
 11
13.8342
 21
-14.2214
  0
LINE
  8
0
 10
13.8342
 20
-14.2214
 11
14.079
 21
-13.9495
  0
LINE
  8
0
 10
14.079
 20
-13.9495
 11
14.375
 21
-13.7345
  0
LINE
  8
0
 10
14.375
 20
-13.7345
 11
14.7092
 21
-13.5856
  0
LINE
  8
0
 10
14.7092
 20
-13.5856
 11
15.0671
 21
-13.5096
  0
LINE
  8
0
 10
15.0671
 20
-13.5096
 11
15.4329
 21
-13.5096
  0
LINE
  8
0
 10
15.4329
 20
-13.5096
 11
15.7908
 21
-13.5856
  0
LINE
  8
0
 10
15.7908
 20
-13.5856
 11
16.125
 21
-13.7345
  0
LINE
  8
0
 10
16.125
 20
-13.7345
 11
16.421
 21
-13.9495
  0
LINE
  8
0
 10
16.421
 20
-13.9495
 11
16.6658
 21
-14.2214
  0
LINE
  8
0
 10
16.6658
 20
-14.2214
 11
16.8487
 21
-14.5382
  0
LINE
  8
0
 10
16.8487
 20
-14.5382
 11
16.9617
 21
-14.8862
  0
LINE
  8
0
 10
16.9617
 20
-14.8862
 11
17
 21
-15.25
  0
LINE
  8
0
 10
17
 20
-15.25
 11
16.9617
 21
-15.6138
  0
LINE
  8
0
 10
16.9617
 20
-15.6138
 11
16.8487
 21
-15.9618
  0
LINE
  8
0
 10
16.8487
 20
-15.9618
 11
16.6658
 21
-16.2786
  0
LINE
  8
0
 10
16.6658
 20
-16.2786
 11
16.421
 21
-16.5505
  0
LINE
  8
0
 10
16.421
 20
-16.5505
 11
16.125
 21
-16.7655
  0
LINE
  8
0
 10
16.125
 20
-16.7655
 11
15.7908
 21
-16.9143
  0
LINE
  8
0
 10
15.7908
 20
-16.9143
 11
15.4329
 21
-16.9904
  0
LINE
  8
0
 10
15.4329
 20
-16.9904
 11
15.0671
 21
-16.9904
  0
LINE
  8
0
 10
-22.6829
 20
-24.2404
 11
-23.0408
 21
-24.1643
  0
LINE
  8
0
 10
-23.0408
 20
-24.1643
 11
-23.375
 21
-24.0155
  0
LINE
  8
0
 10
-23.375
 20
-24.0155
 11
-23.671
 21
-23.8005
  0
LINE
  8
0
 10
-23.671
 20
-23.8005
 11
-23.9158
 21
-23.5286
  0
LINE
  8
0
 10
-23.9158
 20
-23.5286
 11
-24.0987
 21
-23.2118
  0
LINE
  8
0
 10
-24.0987
 20
-23.2118
 11
-24.2117
 21
-22.8638
  0
LINE
  8
0
 10
-24.2117
 20
-22.8638
 11
-24.25
 21
-22.5
  0
LINE
  8
0
 10
-24.25
 20
-22.5
 11
-24.2117
 21
-22.1362
  0
LINE
  8
0
 10
-24.2117
 20
-22.1362
 11
-24.0987
 21
-21.7882
  0
LINE
  8
0
 10
-24.0987
 20
-21.7882
 11
-23.9158
 21
-21.4714
  0
LINE
  8
0
 10
-23.9158
 20
-21.4714
 11
-23.671
 21
-21.1995
  0
LINE
  8
0
 10
-23.671
 20
-21.1995
 11
-23.375
 21
-20.9845
  0
LINE
  8
0
 10
-23.375
 20
-20.9845
 11
-23.0408
 21
-20.8356
  0
LINE
  8
0
 10
-23.0408
 20
-20.8356
 11
-22.6829
 21
-20.7596
  0
LINE
  8
0
 10
-22.6829
 20
-20.7596
 11
-22.3171
 21
-20.7596
  0
LINE
  8
0
 10
-22.3171
 20
-20.7596
 11
-21.9592
 21
-20.8356
  0
LINE
  8
0
 10
-21.9592
 20
-20.8356
 11
-21.625
 21
-20.9845
  0
LINE
  8
0
 10
-21.625
 20
-20.9845
 11
-21.329
 21
-21.1995
  0
LINE
  8
0
 10
-21.329
 20
-21.1995
 11
-21.0842
 21
-21.4714
  0
LINE
  8
0
 10
-21.0842
 20
-21.4714
 11
-20.9013
 21
-21.7882
  0
LINE
  8
0
 10
-20.9013
 20
-21.7882
 11
-20.7882
 21
-22.1362
  0
LINE
  8
0
 10
-20.7882
 20
-22.1362
 11
-20.75
 21
-22.5
  0
LINE
  8
0
 10
-20.75
 20
-22.5
 11
-20.7882
 21
-22.8638
  0
LINE
  8
0
 10
-20.7882
 20
-22.8638
 11
-20.9013
 21
-23.2118
  0
LINE
  8
0
 10
-20.9013
 20
-23.2118
 11
-21.0842
 21
-23.5286
  0
LINE
  8
0
 10
-21.0842
 20
-23.5286
 11
-21.329
 21
-23.8005
  0
LINE
  8
0
 10
-21.329
 20
-23.8005
 11
-21.625
 21
-24.0155
  0
LINE
  8
0
 10
-21.625
 20
-24.0155
 11
-21.9592
 21
-24.1643
  0
LINE
  8
0
 10
-21.9592
 20
-24.1643
 11
-22.3171
 21
-24.2404
  0
LINE
  8
0
 10
-22.3171
 20
-24.2404
 11
-22.6829
 21
-24.2404
  0
LINE
  8
0
 10
22.3171
 20
-24.2404
 11
21.9592
 21
-24.1643
  0
LINE
  8
0
 10
21.9592
 20
-24.1643
 11
21.625
 21
-24.0155
  0
LINE
  8
0
 10
21.625
 20
-24.0155
 11
21.329
 21
-23.8005
  0
LINE
  8
0
 10
21.329
 20
-23.8005
 11
21.0842
 21
-23.5286
  0
LINE
  8
0
 10
21.0842
 20
-23.5286
 11
20.9013
 21
-23.2118
  0
LINE
  8
0
 10
20.9013
 20
-23.2118
 11
20.7882
 21
-22.8638
  0
LINE
  8
0
 10
20.7882
 20
-22.8638
 11
20.75
 21
-22.5
  0
LINE
  8
0
 10
20.75
 20
-22.5
 11
20.7882
 21
-22.1362
  0
LINE
  8
0
 10
20.7882
 20
-22.1362
 11
20.9013
 21
-21.7882
  0
LINE
  8
0
 10
20.9013
 20
-21.7882
 11
21.0842
 21
-21.4714
  0
LINE
  8
0
 10
21.0842
 20
-21.4714
 11
21.329
 21
-21.1995
  0
LINE
  8
0
 10
21.329
 20
-21.1995
 11
21.625
 21
-20.9845
  0
LINE
  8
0
 10
21.625
 20
-20.9845
 11
21.9592
 21
-20.8356
  0
LINE
  8
0
 10
21.9592
 20
-20.8356
 11
22.3171
 21
-20.7596
  0
LINE
  8
0
 10
22.3171
 20
-20.7596
 11
22.6829
 21
-20.7596
  0
LINE
  8
0
 10
22.6829
 20
-20.7596
 11
23.0408
 21
-20.8356
  0
LINE
  8
0
 10
23.0408
 20
-20.8356
 11
23.375
 21
-20.9845
  0
LINE
  8
0
 10
23.375
 20
-20.9845
 11
23.671
 21
-21.1995
  0
LINE
  8
0
 10
23.671
 20
-21.1995
 11
23.9158
 21
-21.4714
  0
LINE
  8
0
 10
23.9158
 20
-21.4714
 11
24.0987
 21
-21.7882
  0
LINE
  8
0
 10
24.0987
 20
-21.7882
 11
24.2117
 21
-22.1362
  0
LINE
  8
0
 10
24.2117
 20
-22.1362
 11
24.25
 21
-22.5
  0
LINE
  8
0
 10
24.25
 20
-22.5
 11
24.2117
 21
-22.8638
  0
LINE
  8
0
 10
24.2117
 20
-22.8638
 11
24.0987
 21
-23.2118
  0
LINE
  8
0
 10
24.0987
 20
-23.2118
 11
23.9158
 21
-23.5286
  0
LINE
  8
0
 10
23.9158
 20
-23.5286
 11
23.671
 21
-23.8005
  0
LINE
  8
0
 10
23.671
 20
-23.8005
 11
23.375
 21
-24.0155
  0
LINE
  8
0
 10
23.375
 20
-24.0155
 11
23.0408
 21
-24.1643
  0
LINE
  8
0
 10
23.0408
 20
-24.1643
 11
22.6829
 21
-24.2404
  0
LINE
  8
0
 10
22.6829
 20
-24.2404
 11
22.3171
 21
-24.2404
  0
LINE
  8
0
 10
13.1613
 20
-25.7701
 11
12.8079
 21
-25.6754
  0
LINE
  8
0
 10
12.8079
 20
-25.6754
 11
12.4819
 21
-25.5093
  0
LINE
  8
0
 10
12.4819
 20
-25.5093
 11
12.1976
 21
-25.2791
  0
LINE
  8
0
 10
12.1976
 20
-25.2791
 11
11.9674
 21
-24.9947
  0
LINE
  8
0
 10
11.9674
 20
-24.9947
 11
11.8013
 21
-24.6688
  0
LINE
  8
0
 10
11.8013
 20
-24.6688
 11
11.7066
 21
-24.3154
  0
LINE
  8
0
 10
11.7066
 20
-24.3154
 11
11.6874
 21
-23.95
  0
LINE
  8
0
 10
11.6874
 20
-23.95
 11
11.7447
 21
-23.5887
  0
LINE
  8
0
 10
11.7447
 20
-23.5887
 11
11.8758
 21
-23.2471
  0
LINE
  8
0
 10
11.8758
 20
-23.2471
 11
12.075
 21
-22.9403
  0
LINE
  8
0
 10
12.075
 20
-22.9403
 11
12.3337
 21
-22.6816
  0
LINE
  8
0
 10
12.3337
 20
-22.6816
 11
12.6405
 21
-22.4824
  0
LINE
  8
0
 10
12.6405
 20
-22.4824
 11
12.9821
 21
-22.3513
  0
LINE
  8
0
 10
12.9821
 20
-22.3513
 11
13.3434
 21
-22.294
  0
LINE
  8
0
 10
13.3434
 20
-22.294
 11
13.7088
 21
-22.3132
  0
LINE
  8
0
 10
13.7088
 20
-22.3132
 11
14.0622
 21
-22.4079
  0
LINE
  8
0
 10
14.0622
 20
-22.4079
 11
14.3882
 21
-22.574
  0
LINE
  8
0
 10
14.3882
 20
-22.574
 11
14.6725
 21
-22.8042
  0
LINE
  8
0
 10
14.6725
 20
-22.8042
 11
14.9027
 21
-23.0885
  0
LINE
  8
0
 10
14.9027
 20
-23.0885
 11
15.0688
 21
-23.4145
  0
LINE
  8
0
 10
15.0688
 20
-23.4145
 11
15.1635
 21
-23.7679
  0
LINE
  8
0
 10
15.1635
 20
-23.7679
 11
15.1826
 21
-24.1332
  0
LINE
  8
0
 10
15.1826
 20
-24.1332
 11
15.1254
 21
-24.4946
  0
LINE
  8
0
 10
15.1254
 20
-24.4946
 11
14.9943
 21
-24.8361
  0
LINE
  8
0
 10
14.9943
 20
-24.8361
 11
14.795
 21
-25.1429
  0
LINE
  8
0
 10
14.795
 20
-25.1429
 11
14.5363
 21
-25.4016
  0
LINE
  8
0
 10
14.5363
 20
-25.4016
 11
14.2295
 21
-25.6009
  0
LINE
  8
0
 10
14.2295
 20
-25.6009
 11
13.888
 21
-25.732
  0
LINE
  8
0
 10
13.888
 20
-25.732
 11
13.5266
 21
-25.7892
  0
LINE
  8
0
 10
13.5266
 20
-25.7892
 11
13.1613
 21
-25.7701
  0
LINE
  8
0
 10
-13.888
 20
-25.732
 11
-14.2295
 21
-25.6009
  0
LINE
  8
0
 10
-14.2295
 20
-25.6009
 11
-14.5363
 21
-25.4016
  0
LINE
  8
0
 10
-14.5363
 20
-25.4016
 11
-14.795
 21
-25.1429
  0
LINE
  8
0
 10
-14.795
 20
-25.1429
 11
-14.9943
 21
-24.8361
  0
LINE
  8
0
 10
-14.9943
 20
-24.8361
 11
-15.1254
 21
-24.4946
  0
LINE
  8
0
 10
-15.1254
 20
-24.4946
 11
-15.1826
 21
-24.1332
  0
LINE
  8
0
 10
-15.1826
 20
-24.1332
 11
-15.1635
 21
-23.7679
  0
LINE
  8
0
 10
-15.1635
 20
-23.7679
 11
-15.0688
 21
-23.4145
  0
LINE
  8
0
 10
-15.0688
 20
-23.4145
 11
-14.9027
 21
-23.0885
  0
LINE
  8
0
 10
-14.9027
 20
-23.0885
 11
-14.6725
 21
-22.8042
  0
LINE
  8
0
 10
-14.6725
 20
-22.8042
 11
-14.3882
 21
-22.574
  0
LINE
  8
0
 10
-14.3882
 20
-22.574
 11
-14.0622
 21
-22.4079
  0
LINE
  8
0
 10
-14.0622
 20
-22.4079
 11
-13.7088
 21
-22.3132
  0
LINE
  8
0
 10
-13.7088
 20
-22.3132
 11
-13.3434
 21
-22.294
  0
LINE
  8
0
 10
-13.3434
 20
-22.294
 11
-12.9821
 21
-22.3513
  0
LINE
  8
0
 10
-12.9821
 20
-22.3513
 11
-12.6405
 21
-22.4824
  0
LINE
  8
0
 10
-12.6405
 20
-22.4824
 11
-12.3337
 21
-22.6816
  0
LINE
  8
0
 10
-12.3337
 20
-22.6816
 11
-12.075
 21
-22.9403
  0
LINE
  8
0
 10
-12.075
 20
-22.9403
 11
-11.8758
 21
-23.2471
  0
LINE
  8
0
 10
-11.8758
 20
-23.2471
 11
-11.7447
 21
-23.5887
  0
LINE
  8
0
 10
-11.7447
 20
-23.5887
 11
-11.6874
 21
-23.95
  0
LINE
  8
0
 10
-11.6874
 20
-23.95
 11
-11.7066
 21
-24.3154
  0
LINE
  8
0
 10
-11.7066
 20
-24.3154
 11
-11.8013
 21
-24.6688
  0
LINE
  8
0
 10
-11.8013
 20
-24.6688
 11
-11.9674
 21
-24.9947
  0
LINE
  8
0
 10
-11.9674
 20
-24.9947
 11
-12.1976
 21
-25.2791
  0
LINE
  8
0
 10
-12.1976
 20
-25.2791
 11
-12.4819
 21
-25.5093
  0
LINE
  8
0
 10
-12.4819
 20
-25.5093
 11
-12.8079
 21
-25.6754
  0
LINE
  8
0
 10
-12.8079
 20
-25.6754
 11
-13.1613
 21
-25.7701
  0
LINE
  8
0
 10
-13.1613
 20
-25.7701
 11
-13.5266
 21
-25.7892
  0
LINE
  8
0
 10
-13.5266
 20
-25.7892
 11
-13.888
 21
-25.732
  0
LINE
  8
0
 10
-29.4443
 20
-30.6817
 11
-29.7859
 21
-30.5506
  0
LINE
  8
0
 10
-29.7859
 20
-30.5506
 11
-30.0927
 21
-30.3514
  0
LINE
  8
0
 10
-30.0927
 20
-30.3514
 11
-30.3514
 21
-30.0927
  0
LINE
  8
0
 10
-30.3514
 20
-30.0927
 11
-30.5506
 21
-29.7859
  0
LINE
  8
0
 10
-30.5506
 20
-29.7859
 11
-30.6817
 21
-29.4443
  0
LINE
  8
0
 10
-30.6817
 20
-29.4443
 11
-30.739
 21
-29.0829
  0
LINE
  8
0
 10
-30.739
 20
-29.0829
 11
-30.7198
 21
-28.7176
  0
LINE
  8
0
 10
-30.7198
 20
-28.7176
 11
-30.6251
 21
-28.3642
  0
LINE
  8
0
 10
-30.6251
 20
-28.3642
 11
-30.459
 21
-28.0383
  0
LINE
  8
0
 10
-30.459
 20
-28.0383
 11
-30.2288
 21
-27.7539
  0
LINE
  8
0
 10
-30.2288
 20
-27.7539
 11
-29.9445
 21
-27.5237
  0
LINE
  8
0
 10
-29.9445
 20
-27.5237
 11
-29.6185
 21
-27.3576
  0
LINE
  8
0
 10
-29.6185
 20
-27.3576
 11
-29.2651
 21
-27.2629
  0
LINE
  8
0
 10
-29.2651
 20
-27.2629
 11
-28.8998
 21
-27.2438
  0
LINE
  8
0
 10
-28.8998
 20
-27.2438
 11
-28.5385
 21
-27.301
  0
LINE
  8
0
 10
-28.5385
 20
-27.301
 11
-28.1969
 21
-27.4321
  0
LINE
  8
0
 10
-28.1969
 20
-27.4321
 11
-27.8901
 21
-27.6314
  0
LINE
  8
0
 10
-27.8901
 20
-27.6314
 11
-27.6314
 21
-27.8901
  0
LINE
  8
0
 10
-27.6314
 20
-27.8901
 11
-27.4321
 21
-28.1969
  0
LINE
  8
0
 10
-27.4321
 20
-28.1969
 11
-27.301
 21
-28.5385
  0
LINE
  8
0
 10
-27.301
 20
-28.5385
 11
-27.2438
 21
-28.8998
  0
LINE
  8
0
 10
-27.2438
 20
-28.8998
 11
-27.2629
 21
-29.2651
  0
LINE
  8
0
 10
-27.2629
 20
-29.2651
 11
-27.3576
 21
-29.6185
  0
LINE
  8
0
 10
-27.3576
 20
-29.6185
 11
-27.5237
 21
-29.9445
  0
LINE
  8
0
 10
-27.5237
 20
-29.9445
 11
-27.7539
 21
-30.2288
  0
LINE
  8
0
 10
-27.7539
 20
-30.2288
 11
-28.0383
 21
-30.459
  0
LINE
  8
0
 10
-28.0383
 20
-30.459
 11
-28.3642
 21
-30.6251
  0
LINE
  8
0
 10
-28.3642
 20
-30.6251
 11
-28.7176
 21
-30.7198
  0
LINE
  8
0
 10
-28.7176
 20
-30.7198
 11
-29.0829
 21
-30.739
  0
LINE
  8
0
 10
-29.0829
 20
-30.739
 11
-29.4443
 21
-30.6817
  0
LINE
  8
0
 10
28.7176
 20
-30.7198
 11
28.3642
 21
-30.6251
  0
LINE
  8
0
 10
28.3642
 20
-30.6251
 11
28.0383
 21
-30.459
  0
LINE
  8
0
 10
28.0383
 20
-30.459
 11
27.7539
 21
-30.2288
  0
LINE
  8
0
 10
27.7539
 20
-30.2288
 11
27.5237
 21
-29.9445
  0
LINE
  8
0
 10
27.5237
 20
-29.9445
 11
27.3576
 21
-29.6185
  0
LINE
  8
0
 10
27.3576
 20
-29.6185
 11
27.2629
 21
-29.2651
  0
LINE
  8
0
 10
27.2629
 20
-29.2651
 11
27.2438
 21
-28.8998
  0
LINE
  8
0
 10
27.2438
 20
-28.8998
 11
27.301
 21
-28.5385
  0
LINE
  8
0
 10
27.301
 20
-28.5385
 11
27.4321
 21
-28.1969
  0
LINE
  8
0
 10
27.4321
 20
-28.1969
 11
27.6314
 21
-27.8901
  0
LINE
  8
0
 10
27.6314
 20
-27.8901
 11
27.8901
 21
-27.6314
  0
LINE
  8
0
 10
27.8901
 20
-27.6314
 11
28.1969
 21
-27.4321
  0
LINE
  8
0
 10
28.1969
 20
-27.4321
 11
28.5385
 21
-27.301
  0
LINE
  8
0
 10
28.5385
 20
-27.301
 11
28.8998
 21
-27.2438
  0
LINE
  8
0
 10
28.8998
 20
-27.2438
 11
29.2651
 21
-27.2629
  0
LINE
  8
0
 10
29.2651
 20
-27.2629
 11
29.6185
 21
-27.3576
  0
LINE
  8
0
 10
29.6185
 20
-27.3576
 11
29.9445
 21
-27.5237
  0
LINE
  8
0
 10
29.9445
 20
-27.5237
 11
30.2288
 21
-27.7539
  0
LINE
  8
0
 10
30.2288
 20
-27.7539
 11
30.459
 21
-28.0383
  0
LINE
  8
0
 10
30.459
 20
-28.0383
 11
30.6251
 21
-28.3642
  0
LINE
  8
0
 10
30.6251
 20
-28.3642
 11
30.7198
 21
-28.7176
  0
LINE
  8
0
 10
30.7198
 20
-28.7176
 11
30.739
 21
-29.0829
  0
LINE
  8
0
 10
30.739
 20
-29.0829
 11
30.6817
 21
-29.4443
  0
LINE
  8
0
 10
30.6817
 20
-29.4443
 11
30.5506
 21
-29.7859
  0
LINE
  8
0
 10
30.5506
 20
-29.7859
 11
30.3514
 21
-30.0927
  0
LINE
  8
0
 10
30.3514
 20
-30.0927
 11
30.0927
 21
-30.3514
  0
LINE
  8
0
 10
30.0927
 20
-30.3514
 11
29.7859
 21
-30.5506
  0
LINE
  8
0
 10
29.7859
 20
-30.5506
 11
29.4443
 21
-30.6817
  0
LINE
  8
0
 10
29.4443
 20
-30.6817
 11
29.0829
 21
-30.739
  0
LINE
  8
0
 10
29.0829
 20
-30.739
 11
28.7176
 21
-30.7198
  0
ENDSEC
  0
SECTION
  2
OBJECTS
  0
DICTIONARY
  0
ENDSEC
  0
EOF
